<?xml version="1.0" encoding="UTF-8"?>
<svg id="Camada_1" xmlns="http://www.w3.org/2000/svg" version="1.1" viewBox="0 0 24 24">
  <!-- Generator: Adobe Illustrator 29.2.1, SVG Export Plug-In . SVG Version: 2.1.0 Build 116)  -->
  <defs>
    <style>
      .st0 {
        fill: #ecb87b;
      }

      .st1 {
        isolation: isolate;
      }
    </style>
  </defs>
  <path class="st0" d="M11.7,12.3h-1.6v-.5h1.6v-1.6h.5v1.6h1.6v.5h-1.6v1.6h-.5v-1.6Z"/>
  <path class="st0" d="M16,22.4c-.9,0-1.7-.3-2.3-.9s-.9-1.4-.9-2.3,0-.2,0-.3v-.3h-.4c-.4,0-.7-.1-1-.4s-.4-.6-.4-1,.1-.7.4-1,.6-.4.9-.4.6,0,.8.3.4.4.5.6c.3-.3.6-.5,1-.7s.8-.2,1.2-.2h6v2.2h-2.7v1.1c0,.9-.3,1.7-.9,2.3-.6.6-1.4.9-2.3.9h.1ZM12.5,17.7c.2,0,.3,0,.4-.2s.2-.2.2-.4,0-.3-.2-.4-.2-.2-.4-.2-.3,0-.4.2-.2.2-.2.4,0,.3.2.4.2.2.4.2ZM16,21c.5,0,1-.2,1.3-.6.4-.4.6-.8.6-1.3s-.2-1-.6-1.3c-.4-.4-.8-.6-1.3-.6s-1,.2-1.3.6c-.4.4-.6.8-.6,1.3s.2,1,.6,1.3.8.6,1.3.6ZM16,20.2c.3,0,.6-.1.8-.3s.3-.5.3-.8-.1-.6-.3-.8-.5-.3-.8-.3-.6.1-.8.3c-.2.2-.3.5-.3.8s.1.6.3.8.5.3.8.3Z"/>
  <path class="st0" d="M3.3,9v-.6h0c0-.1,0-.2,0-.2h.3c0-.1-.5-.1-.5-.1v-.3h.7c0,0,0,0,0,0v.4h0q0,.2,0,.2h-.3c0,.1.5.1.5.1v.3h-.8.1ZM3.6,6.5v-.9h-.3v-.3h.6v1.2h-.3Z"/>
  <path class="st0" d="M3,10.1c-.3,0-.5,0-.6-.3s-.3-.4-.3-.6V2.7c0-.3,0-.5.3-.6.2-.2.4-.3.6-.3h6.5c.3,0,.5,0,.6.3s.3.4.3.6v6.5c0,.3,0,.5-.3.6s-.4.3-.6.3H3ZM3,9.1h1.5v-1.5h-1.5v1.5ZM5.4,9.1h1.6v-1.5h-1.6v1.5ZM7.9,9.1h1.5v-1.5h-1.5s0,1.5,0,1.5ZM3,6.7h1.5v-1.6h-1.5v1.6ZM5.4,6.7h1.6v-1.6h-1.6v1.6ZM7.9,6.7h1.5v-1.6h-1.5s0,1.6,0,1.6ZM3,4.2h1.5v-1.5h-1.5v1.5ZM5.4,4.2h1.6v-1.5h-1.6v1.5ZM7.9,4.2h1.5v-1.5h-1.5s0,1.5,0,1.5Z"/>
  <g class="st1">
    <g class="st1">
      <path class="st0" d="M3.6,2.9v.3h.2v-.3h.1v.3h.1c0,.1-.1.1-.1.1v.3h.1c0,.1-.1.1-.1.1v.3h-.1v-.3h-.2v.3h-.1v-.3h-.1c0-.1.1-.1.1-.1v-.3h-.1c0-.1.1-.1.1-.1v-.3h.1ZM3.6,3.6h.2v-.3h-.2v.3Z"/>
    </g>
  </g>
  <g class="st1">
    <g class="st1">
      <path class="st0" d="M6.4,2.9s0,0,0,0c0,0,0,0,0,0s0,0,0,.1,0,0,0,.1,0,0,0,.1,0,0,0,.1c0,0,0,0,0,0,0,0,0,0,0,0h-.3v.4h-.2v-1.1h.5ZM6.1,3.4h.2c0,0,.1,0,.1-.2s0-.2-.1-.2h-.2v.4Z"/>
    </g>
  </g>
  <g class="st1">
    <g class="st1">
      <path class="st0" d="M9.1,2.9v.8s0,0,0,.1,0,0,0,0c0,0,0,0,0,0,0,0,0,0,0,0h-.5c0-.1.4-.1.4-.1,0,0,0,0,0,0,0,0,0,0,0,0s0,0,0,0c0,0,0,0,0,0v-.7h-.3c0-.1.5-.1.5-.1Z"/>
    </g>
  </g>
</svg>