<?xml version="1.0" encoding="UTF-8"?>
<svg id="Camada_1" xmlns="http://www.w3.org/2000/svg" version="1.1" viewBox="0 0 24 24">
  <!-- Generator: Adobe Illustrator 29.2.1, SVG Export Plug-In . SVG Version: 2.1.0 Build 116)  -->
  <defs>
    <style>
      .st0 {
        fill: #ecb87b;
      }

      .st1 {
        isolation: isolate;
      }
    </style>
  </defs>
  <path class="st0" d="M5.7,18.6v-1.5s.2-.1.3-.1h.6v-.3h-1.1v-.6h1.3s.2,0,.3.1,0,.2,0,.3v1.1s-.2.1-.3.1h-.6v.3h1.1v.6h-1.7,0ZM6.4,13.3v-1.9h-.6v-.6h1.3v2.6h-.7Z"/>
  <path class="st0" d="M5,21c-.6,0-1-.2-1.4-.6s-.6-.9-.6-1.4V5c0-.6.2-1,.6-1.4.4-.4.9-.6,1.4-.6h14c.6,0,1,.2,1.4.6s.6.9.6,1.4v14c0,.6-.2,1-.6,1.4s-.9.6-1.4.6H5ZM5,19h3.3v-3.3h-3.3v3.3ZM10.3,19h3.4v-3.3h-3.4s0,3.3,0,3.3ZM15.7,19h3.3v-3.3h-3.3v3.3ZM5,13.7h3.3v-3.4h-3.3v3.4ZM10.3,13.7h3.4v-3.4h-3.4s0,3.4,0,3.4ZM15.7,13.7h3.3v-3.4h-3.3v3.4ZM5,8.3h3.3v-3.3h-3.3v3.3ZM10.3,8.3h3.4v-3.3h-3.4s0,3.3,0,3.3ZM15.7,8.3h3.3v-3.3h-3.3v3.3Z"/>
  <g class="st1">
    <g class="st1">
      <path class="st0" d="M6.4,5.4v.7h.4v-.7h.3v.7h.2v.3h-.2v.6h.2v.2h-.2v.6h-.3v-.6h-.4v.6h-.3v-.6h-.3v-.2h.3v-.6h-.3v-.3h.3v-.7h.3ZM6.4,6.9h.4v-.6h-.4v.6Z"/>
    </g>
  </g>
  <g class="st1">
    <g class="st1">
      <path class="st0" d="M12.2,5.4c0,0,.1,0,.2,0s.1,0,.1.2c0,0,0,.1,0,.2,0,0,0,.2,0,.3s0,.2,0,.3,0,.2,0,.2c0,0,0,.1-.1.2s-.1,0-.2,0h-.6v.9h-.5v-2.4h1.1ZM11.6,6.6h.4c.1,0,.2-.1.2-.4s0-.5-.2-.5h-.4v.9Z"/>
    </g>
  </g>
  <g class="st1">
    <g class="st1">
      <path class="st0" d="M18.2,5.4v1.8c0,0,0,.2,0,.3s0,.2,0,.2c0,0,0,.1-.1.1,0,0-.1,0-.2,0h-1v-.3h.8s0,0,0,0c0,0,0,0,0,0,0,0,0,0,0-.1s0,0,0-.1v-1.5h-.6v-.3h1Z"/>
    </g>
  </g>
</svg>