<?xml version="1.0" encoding="UTF-8"?>
<svg id="Camada_1" xmlns="http://www.w3.org/2000/svg" version="1.1" viewBox="0 0 1063.8 1070.9">
  <!-- Generator: Adobe Illustrator 29.2.1, SVG Export Plug-In . SVG Version: 2.1.0 Build 116)  -->
  <defs>
    <style>
      .st0 {
        fill: #e1c4b3;
      }

      .st1 {
        fill: #f3d4b1;
      }

      .st2 {
        fill: #ecb87b;
      }

      .st3 {
        fill: #ddc7a7;
      }

      .st4 {
        fill: #e0bab5;
      }

      .st5 {
        fill: #d3c392;
      }

      .st6 {
        fill: #e2c4af;
      }

      .st7 {
        fill: #e7c9a8;
      }

      .st8 {
        fill: #edc9a8;
      }

      .st9 {
        fill: #d8b7ab;
      }

      .st10 {
        fill: #eaccb2;
      }

      .st11 {
        fill: #e3c0a4;
      }

      .st12 {
        fill: #dcaebb;
      }
    </style>
  </defs>
  <path class="st2" d="M295.1,90.7c7.1,1.6,12,6.7,13.8,13.8,1,4.5-1,35.6.2,37s.8,0,.8,0-.3,1.1.7,1h55.2c10.8,2.1,15,8.3,15.7,18.9l.2,105.4c.9.7,2.2.9,3.4,1,10.9.9,29.3.7,40.3,0s3.8,0,4.1-2.2c2.1-16.8-7.8-44.8,14.7-50.1h178.7c21.4,4.4,12.6,33.7,14.4,49.1s.6,2.6,1.2,2.6h57.6c1.7,0,2.6,1.4,4.6,1.4s.3,0,.5,0c2.8,3.3,6.1,5.6,7.6,9.9,1.4,168.3.2,336.8.6,505.2.2,4.2-2.6,10.9-5.9,13.5s-3.5,1.2-4.6,2.6c-1.8-.2-4.1,1-6,1h-54.2c-.6,0-.2.7-.3.9-.6,1.4-.9,2.5-1,4.1-.7,9,.8,19.2,0,28.1-.8,8.6-7,15.1-15.6,16.3h-177.1c-5-1-10.4-4.1-12.9-8.7s-2.2-5.5-2.2-6v-36.5c0,0-.7-.7-.7-.7h-46.5c0,0-.7.7-.7.7v107.5c0,5.3-4,11.8-8.7,14.3s-4.7,2.2-5,2.2h-57.6c0,0-.7.7-.7.7v33.6c0,7.6-5.9,15.6-13.4,17.3-60.4,1.3-121.1,1-181.5.1-4.1-1.6-8.4-4.1-10.6-8.1s-1.2-5.6-2.7-2.8v-115.6l1.4,1c.8-6.5,8.5-11.8,14.6-12.5h175.6c8.7.6,16.5,8.8,16.5,17.5v34.1c0,0,.7.7.7.7h35c.2,0,1.8-.8,1.9-.9l.2-214.2c0-.5-1-.2-1.4-.3h-36l-.5.5c-.6,10.9.8,22.6,0,33.4s-7.5,17.3-18,18H118.7c-6-.4-12.3-3.8-15.3-9.2s-.2-3.8-2.2-2.4v-115.6c1.6,2.7,1.4-.5,2.2-1.9,2.8-5.6,8.7-9,14.9-9.6h173.8c7.8.4,15.4,6,16.8,13.9s-1.2,25.4.2,36.3.9,2,2.6,2.2c17.7,1.7,38.1-1.4,56.1,0,8.1,2.4,13.8,8.7,13.8,17.4v106.5c0,0,.7.7.7.7h46.5c0,0,.7-.7.7-.7v-35.5c0-7,8.2-15,15.1-15.6h178.8c4.8,1.2,10.1,5.2,12.5,9.6s.4.8.5,1c.2.6.3,1.3.5,1.9s.8,3.1,1,3.8c.3,1.7-.5,3.4-.5,5-.1,8.7-.5,18.8,0,27.4s.5,5.5,1,6,.5.6,1.1.5h34.3c.2-.4,0-.8,0-1,.2-.5.7-1.6,1-1.9s1.2.3,1-.7v-460.7s-1-.3-1-.3h-.5c-.2-1.5.1-1.7-1.7-1.9-10.2-1.2-22.7,1-33.2,0-1.9,0-2,1.6-2.2,3.1-1.5,16.6,7,44.1-14.2,49.7h-178.5c-6.9-.6-15.1-8.5-15.1-15.6v-35.5c0,0-.7-.7-.7-.7h-46.5c-.4,0-.8,1.2-.7,1.7-1.4,34.3,1.9,70.1,0,104.2-.1,2-.5,6.8-1,8.5s-1.3.3-.9,1.3c0,.2.1.9-.3,1.4l-7.4,6.8c-.2,0-.3,0-.5,0-.3,0-.8,0-1,0-1.1,0-1.7-.3-1.4,1-.2,0-.3,0-.5,0-.3,0-.7,0-1,0-.9.1-1.7.6-2.6.5h-54.5c-.9.2-.9.8-1,1.6-2.1,16.8,7.7,45-15.2,50H117.3c-6.1-.5-13.9-5.9-14.6-12.4l-1.4,1v-115.2c1.7,2.8,1.7-1.1,2.5-2.6,2.7-5.1,7.1-7.7,12.6-9h178.8c9.1,2.1,13.8,8.9,14.4,18s-1,22.8.5,33.9h35.8c.1,0,1.3-.7,1.4-1l.3-212.8c.1-1.9-2.1-2-3.6-2.2-10.3-.8-21.7.7-32.2,0-1.5,0-2,.7-2.2,2.2-2.2,16.9,7.9,45.4-15.6,50.1H116.8c-3.2-.7-6.1-1.8-8.6-3.8s-4.7-4.6-4.9-4.9c-.4-.7-.2-2.3-.6-3.2l-1,.5h-.5v-115.6h.5c-.3.7.4,1.5,1,1s1.6-4,1.9-4.8,0-.3,0-.5c1,0,2-.8,1-1.4v-.5c.2-.2.3-.3.5-.5.3-.1.7-.4,1-.5.9-.2,1.7.5,1.4-1,.2,0,.4,0,.5,0,2.3-1,4.9-2.6,7.9-2.9h178.3ZM274.4,125.7h-137.7v68.1h137c0,0,.7-.7.7-.7v-67.4ZM464.9,250l-1.2.4-.3,67.5c.3.2.9,1.7,1,1.7h138l.8-68.4v-.6c-.4-.2-.8,0-1,0-.5-.2-.9-.7-1.6-.5h-135.6ZM274.4,375.8h-137.7v68.1h137c0,0,.7-.7.7-.7v-67.4ZM136.7,690.5c.5.2.9.7,1.6.5h134.9c.5,0,1.7-.4,1.7-.8v-67.7c0-.2-.6-.7-.5-1.2h-137.5c-.2,0-.8.5-1.1.6v68.5c.3.2.7,0,.9,0ZM464.7,746.2l-1,1-.3,67,1,1.9h137.7c.2-.1,1-.9,1-1v-68.1c0,0-.7-.7-.7-.7h-137.7ZM136.7,940.6c.5.2.9.7,1.6.5h134.9c.5,0,1.7-.4,1.7-.8v-67.7c0-.2-.6-.7-.5-1.2h-137.5c-.2,0-.8.5-1.1.6v68.5c.3.2.7,0,.9,0Z"/>
  <path class="st2" d="M990.4,481.3c-.7,35.3.9,70.8,0,106.1-.9.7-.3,2.1-.6,3-.5,1.5-2.8,5.7-4,7.1-2.7,3.2-6.3,5.2-10.3,6.2s-2,.6-3.1.5h-172.3c-1.2,0-2.5-.2-3.6-.5-8.5-2.2-13.1-8-14.4-16.6v-104.6c1-9.1,6.8-15.9,16.1-17.1h176.1c8.9,1.3,14,7.5,16.1,15.9ZM817.2,500.5c0,0-1.1-.3-1,.7v66.8c-.1,1,.9.6,1,.7s-.3,1.1.7,1l137-.5.7-.5.3-67c.2-1-.8-1.4-1.3-2.1h-136.7c-1-.2-.6.9-.7.9Z"/>
  <path class="st3" d="M101.2,598.4c2.6-6.9,8.4-11.6,15.6-12.5h176.1c7.5.7,12.8,4.3,15.7,11.1s1.3,1.9,1.3,2v38.4c0,0,.7.7.7.7h58.1c3.1,0,10.8,7,12.1,10s2,6.2,2,6.6v108.2h45.6v-32.9c0-4.8,1.1-9.2,4.3-12.9,2.6-3,6.5-5,10.3-6h180c.7-.3,1.3.4,1.6.5l-1.4.5h-178.8c-6.9.6-15.1,8.6-15.1,15.6v35.5c0,0-.7.7-.7.7h-46.5c0,0-.7-.7-.7-.7v-106.5c0-8.7-5.7-15-13.8-17.4-18-1.5-38.4,1.7-56.1,0s-2.4-.2-2.6-2.2c-1.4-10.9,1.7-25.5-.2-36.3s-9-13.5-16.8-13.9H118.2c-6.1.6-12,4-14.9,9.6s-.5,4.6-2.2,1.9Z"/>
  <path class="st1" d="M701.5,268.7c6.2,4,8.1,8.3,9.1,15.6v499.6c-.9,7.3-3.9,13-10.6,16.5-.6.2-1.3-.5-1.4-.5,1.1-1.4,3.5-1.7,4.6-2.6,3.3-2.5,6.1-9.3,5.9-13.5-.4-168.4.8-336.9-.6-505.2-1.5-4.3-4.8-6.6-7.6-9.9h.5Z"/>
  <path class="st4" d="M637.2,834h1c-.2,4-1.5,8-4.1,11.1s-6.9,5.8-10.6,6.2c-60.9-.3-122,.7-182.8-.5-8-3-12.2-10.2-12.2-18.5v-32.9c-.6.3-1.4-.5-1.7-.5h-43.2c0,0-.7.7-.7.7v108.5c0,1.1-2.8,7.6-3.7,8.8-1.5,2.2-7.9,7.3-10.5,7.3h-58.1c0,0-.7.7-.7.7v38.4c0,.3-1.9,4.1-2.2,4.5-2.2,3.7-6,6.1-9.8,8l-184.1.2c-6-1.8-10.6-6.2-12.7-12,1.5-2.7,1.7,1.2,2.7,2.8,2.3,4,6.5,6.5,10.6,8.1,60.4.9,121.2,1.1,181.5-.1,7.5-1.7,13.4-9.7,13.4-17.3v-33.6c0,0,.7-.7.7-.7h57.6c.3,0,4.5-1.9,5-2.2,4.7-2.6,8.7-9,8.7-14.3v-107.5c0,0,.7-.7.7-.7h46.5c0,0,.7.7.7.7v36.5c0,.5,1.9,5.3,2.2,6,2.6,4.6,7.9,7.7,12.9,8.7h177.1c8.6-1.2,14.8-7.7,15.6-16.3Z"/>
  <path class="st7" d="M297,89.8c.2,0,3.5,1.7,4,2,4.4,2.6,7.2,6.5,8.8,11.3v38.5c.1,0,57.8.1,57.8.1,5.6,1.2,10.8,5,13.2,10.3s2,5.8,2,6.1v108.7h44.4c.3,0,1.1-.7,1.7-.5v-39.1c0-.3,2.1-4.3,2.2-4.5,2.6-4.1,7.8-7.1,12.4-8.2,60.5.3,121.1-.6,181.4.4,4.5,1.9,8.5,4.3,11,8.7s2.2,4.7,2.2,5v36c0,0,.7.7.7.7h53.7c.3,0,4.6,1.2,5.5,1.4l2.4,1.9c-2,0-2.8-1.4-4.6-1.4h-57.6c-.6,0-1.1-2-1.2-2.6-1.8-15.4,7.1-44.7-14.4-49h-178.7c-22.5,5.2-12.7,33.1-14.7,50-.3,2.2-2.2,2-4.1,2.2-11,.7-29.4.9-40.3,0s-2.4-.2-3.4-1l-.2-105.4c-.6-10.6-4.8-16.8-15.7-18.9h-55.2c-1,.1-.6-.9-.7-1s-.6.1-.8,0c-1.2-1.4.8-32.5-.2-37-1.8-7.1-6.7-12.1-13.8-13.8v-.5c1,0,1.8-.5,1.9-.5Z"/>
  <path class="st0" d="M345.9,673.8c.4,0,1.4-.3,1.4.3l-.2,214.2c-.1.2-1.8.9-1.9.9h-35c0,0-.7-.7-.7-.7v-34.1c0-8.7-7.9-16.9-16.5-17.5H117.3c-6.2.6-13.9,6-14.6,12.5l-1.4-1c.9-2.7,3-6,5.5-8.1s6.3-4,10.1-4.3h176.1c7.5.5,12.8,4.4,15.7,11.1s1.3,1.9,1.3,2v38.4c0,0,.7.7.7.7h34.6c0,0,.7-.7.7-.7v-213.3h-36.5l.5-.5c11.7.7,24.5-1,36,0Z"/>
  <path class="st8" d="M674.2,302.8c0,.2,0,.3,0,.5l-1.6-1c-10.3,1-22.6-1.2-32.7,0s-1.7.2-1.7.7v37.4c0,.7-3.5,7.3-4.3,8.2-1.9,2.3-6.8,5.6-9.9,6-61-.2-122.1.4-183-.3-3.1-1.5-6-3-8.2-5.7-3.2-3.9-4.3-8-4.3-12.9v-32.9h-45.6l-.5,108.9c-.3,1.4-.3,2-1,3.4s-1.8,2.3-1.9,2.4c-.3-1,.8-.8.9-1.3.5-1.7.9-6.6,1-8.5,1.8-34.1-1.4-69.9,0-104.2-.1-.5.3-1.7.7-1.7h46.5c0,0,.7.7.7.7v35.5c0,7,8.2,15,15.1,15.6h178.5c21.2-5.6,12.7-33.1,14.2-49.7s.3-3.1,2.2-3.1c10.4,1,23-1.2,33.2,0s1.5.4,1.7,1.9Z"/>
  <path class="st0" d="M101.7,217.4l1-.5c.5.9.2,2.5.6,3.2s4.3,4.4,4.9,4.9c2.5,2,5.5,3.1,8.6,3.9h177c23.5-4.8,13.4-33.3,15.6-50.2s.6-2.1,2.2-2.2c10.4.7,21.9-.8,32.2,0s3.7.2,3.6,2.2l-.3,212.8c-.1.2-1.3,1-1.4,1h-35.8c-1.5-11.1.3-22.7-.5-33.9s-5.3-15.9-14.4-18l1.4-1c4.9,1.9,8.8,4.2,11.4,9s2,4,2,4.2v38.6h36v-213.3c0,0-.7-.7-.7-.7h-35.3v39.1c0,.7-1.2,1.2-1.3,1.4-.9,2.1-1,3-2.6,5.1l-1,1c-1.3,1.3-2.2,2.4-3.8,3.4l-1.4.5c-1.5.7-2.6,1.8-4.3,1.4H115.1c-1.7.4-2.9-.8-4.3-1.4l-1.4-.5c-3.5-2.1-5.5-4.5-6.7-8.2-.1-.2-.4-.3-.5-.5-.3-.4-.4-.9-.5-1.4Z"/>
  <path class="st11" d="M990.4,481.3c-2.1-8.4-7.2-14.5-16.1-15.8h-176.1c-9.2,1.2-15.1,8-16.1,17v104.6c1.3,8.5,5.9,14.3,14.4,16.6v1c-7.1-.6-12-6.1-14.8-12.4-1-38.2-1-76.7,0-115,2.4-6.1,6.3-10,12.5-12.5,60.6-.7,121.4-.1,182-.3,7.6,1.8,15,8.5,14.2,16.8Z"/>
  <path class="st12" d="M310.4,427.6c-1.2,12.8,0,26-.6,39-2.5,6.9-7.3,11.9-14.7,13.2H116.3c-7.3-.8-13-5.8-15.1-12.3l1.4-1c.7,6.4,8.6,11.8,14.6,12.5h176.9c22.9-5.2,13.1-33.4,15.2-50.2s0-1.4,1-1.7v.5Z"/>
  <path class="st1" d="M674.6,764.5c-.2.3-.7,1.4-1,1.9l-35.5.5c-.5-.5-.9-4.8-1-6-.5-8.6-.1-18.7,0-27.4s.8-3.3.5-5h.5c.6,12.1-.5,24.7,0,36.9.8.4,1.7.5,2.6.6,10.1.7,21-.6,31.2,0,1.1,0,2-.6,2.1-1.7v-460.9c0-.2,0-.3,0-.5h.5v461.6Z"/>
  <path class="st5" d="M296.5,339.8l-1.4,1H116.3c-5.5,1.3-9.9,3.8-12.6,9s-.8,5.4-2.5,2.6c.9-2.8,2.8-6.2,5.3-8.3s5.1-3.2,7.8-4.2h182.1Z"/>
  <path class="st10" d="M309.9,674.2v39c-2.6,6.2-6.6,10.2-12.8,12.7H114.4c-6.3-1.7-10.7-5.9-13.2-11.9,2.1-1.5,1.5,1.1,2.2,2.4,3,5.3,9.3,8.8,15.3,9.2h172.8c10.5-.7,17.2-7.5,18-18s-.6-22.5,0-33.4h.5Z"/>
  <path class="st6" d="M738.3,516.9c3.3-1,11.3,0,14.4,1.7,16.6,9.1,9.5,35.4-10.7,34.2s-22.1-22-10.1-32.1,5.1-3.4,6.3-3.8ZM740.3,517.9c-8.8,1.7-15.2,11.5-13.2,20.2,3.2,14.1,20.9,18.6,30.1,6.8s-1.5-29.9-16.9-27Z"/>
  <path class="st8" d="M113.2,90.2c60.6.6,121.3-.8,181.9,0v.5H116.8c-3,.3-5.6,1.9-7.9,2.9l.5-1.4c.3-.2.6-.3,1-.5l1.4-.5c.1,0,.6-1.2,1.4-1Z"/>
  <path class="st5" d="M297,89.8c0,0-.9.5-1.9.5-60.6-.8-121.3.6-181.9,0l183.8-.5Z"/>
  <path class="st1" d="M975.5,603.7v1h-179v-1c1.1.3,2.4.4,3.6.5h172.3c1.1,0,2.1-.2,3.1-.5Z"/>
  <path class="st12" d="M295.5,229.4c-59.9.8-120.5.8-180.4,0h180.4Z"/>
  <path class="st4" d="M698.6,800c.2,0,.9.7,1.4.5-1.1.6-2.2.8-3.4,1s-1.7-.3-2.4,0c-.2.8.9.3,1.4,1-.6.1-1.7,0-2.4,0l-55.2-.5c0-.2-.3-.9.3-1h54.2c1.9,0,4.1-1.1,6-.9Z"/>
  <path class="st1" d="M693.4,802.4c-18.3.7-36.8-.5-55.2,0-.3,10.5.4,21.2,0,31.7h-1c.8-8.9-.7-19.1,0-28.1s.4-2.7,1-4.1l55.2.5Z"/>
  <path class="st12" d="M382.4,411.7l.5-108.9v107.3c.3.7-.4,1.3-.5,1.6Z"/>
  <path class="st11" d="M975.5,604.7v-1c4-1,7.6-3.1,10.3-6.2s3.5-5.5,4-7.1-.3-2.4.6-3c0,3.5.1,5.4-1.7,8.6s-8.3,8.6-13.1,8.7Z"/>
  <path class="st1" d="M367.5,426.6v1h-57.1v-.5h54.5c.9,0,1.8-.4,2.6-.5Z"/>
  <path class="st1" d="M624.7,711.7c5.8,1.5,9,5.1,11.5,10.1h-.5c-2.4-4.4-7.7-8.4-12.5-9.6l1.4-.5Z"/>
  <path class="st12" d="M381.4,415.1c-.4,3.8-4.9,9.2-8.3,10.7s-1.2-.1-1.3-.1l7.4-6.8c.4-.5.2-1.2.3-1.4s1.2-.8,1.9-2.4Z"/>
  <path class="st8" d="M104.6,97.9c-.3.8-1.7,4.6-1.9,4.8-.6.5-1.3-.2-1-1,.2-.3.3-.6.5-1,.4-.8.5-1.4,1-2.4l1.4-.5Z"/>
  <path class="st8" d="M636.7,724.6c.6,1.2.9,2.4,1,.5.4,1.5.4,1.8.5,3.4h-.5c-.1-.7-.8-3.1-1-3.8Z"/>
  <path class="st1" d="M637.7,725.1c0,1.9-.4.7-1-.5-.2-.6-.3-1.3-.5-1.9h.5c.3.9.7,1.4,1,2.4Z"/>
  <path class="st1" d="M371.4,425.7c-.3.7-.8,1.1-1.4,1.4l-1.4-.5c.2,0,.3,0,.5,0,1.2-.2,1.3-.9,1.4-1,.2,0,.7,0,1,0Z"/>
  <path class="st0" d="M701.5,268.7h-.5c-.2,0-.3,0-.5,0l-2.4-1.9c2.2.6,1.8.9,3.4,1.9Z"/>
  <path class="st5" d="M105.5,95.5v.5c-.9.2-.8.8-1,1.4s0,.3,0,.5l-1.4.5c1.1-2.2,1.4-1.8,2.4-2.9Z"/>
  <path class="st5" d="M109.3,92.2l-.5,1.4c-.1,0-.3,0-.5,0-.6.2-1.2,0-1.4,1-.3,0-.6.4-1,.5,1.5-1.4,1.1-1.5,3.4-2.9Z"/>
  <path class="st12" d="M368.5,426.6l1.4.5c-.9.5-1.3.7-2.4.5v-1c.3,0,.7,0,1,0Z"/>
  <path class="st10" d="M696.7,801.4c-.2.4-.5.9-1,1-.5-.7-1.6-.2-1.4-1,.7-.3,2,0,2.4,0Z"/>
  <path class="st12" d="M102.2,218.8c-.4-.2-1.3.5-1-1.4h.5c0,.5.2,1,.5,1.4Z"/>
  <path class="st8" d="M636.7,722.7h-.5c0-.2-.3-.7-.5-1h.5c.2.3.3.6.5,1Z"/>
  <path class="st5" d="M102.2,100.8c-.2.3-.3.6-.5,1h-.5c0-.9-.3-1.1,1-1Z"/>
  <path class="st5" d="M111.7,91.2l-1.4.5c.7-.3,1-.3,1.4-.5Z"/>
  <path class="st12" d="M301.3,227.5c-.8.5-1.1.3-1.4.5l1.4-.5Z"/>
  <path class="st12" d="M110.8,228c-.3-.1-.7,0-1.4-.5l1.4.5Z"/>
  <path class="st12" d="M306.1,223.2c-.8,1.2-.6.6-1,1l1-1Z"/>
  <path class="st2" d="M102.6,219.3s-.4-.4-.5-.5c0,.2.4.3.5.5Z"/>
  <path class="st8" d="M674.6,302.8l1,.3v460.7c.2,1-.9.6-1,.7v-461.6Z"/>
  <path class="st9" d="M464.7,746.2h137.7c0,0,.7.7.7.7v68.1c0,0-.7.8-1,1h-137.7s-1-1.9-1-1.9l.3-67,1-1ZM464.9,815.3h136.5c0,0,.7-.7.7-.7v-66.7c0,0-.7-.7-.7-.7h-136.5v68.1Z"/>
  <path class="st7" d="M464.9,250v.5c-1.1,22.2-.1,44.7-.5,67-.1.5.3,1.7.7,1.7h135.3c.1,0,1.6-.6,1.7-.8l-.5-67.8h.5c.2,0,.6-.2.9,0v.6c.1,0-.7,68.4-.7,68.4h-138c0,0-.7-1.4-1-1.7l.3-67.5,1.2-.4Z"/>
  <path class="st10" d="M136.7,940.6c-.2,0-.6.2-.9,0v-68.5c.4,0,1-.6,1.1-.6h137.5c-.2.5.5,1,.5,1.2v67.7c0,.4-1.2.8-1.7.7h-134.9c-.7.2-1.2-.3-1.6-.5l137.7-.7v-67.4c-.5.2-1-.5-1.2-.5h-136.5v68.6Z"/>
  <path class="st10" d="M136.7,690.5c-.2,0-.6.2-.9,0v-68.5c.4,0,1-.6,1.1-.6h137.5c-.2.5.5,1,.5,1.2v67.7c0,.4-1.2.8-1.7.7h-134.9c-.7.2-1.2-.3-1.6-.5l137.7-.7v-67.4c-.5.2-1-.5-1.2-.5h-136.5v68.6Z"/>
  <path class="st1" d="M602.2,250.5h-137.2v-.5h135.6c.7-.2,1.2.3,1.6.5Z"/>
  <path class="st8" d="M673.7,766.4c0,.2.2.6,0,.9h-34.3c-.6.2-.8,0-1.1-.4l35.5-.5Z"/>
  <path class="st8" d="M345.9,673.8c-11.5-1-24.3.7-36,0h36Z"/>
  <path class="st8" d="M104.6,97.4c.2-.6,0-1.2,1-1.4,1.1.6,0,1.5-1,1.4Z"/>
  <path class="st8" d="M108.4,93.6c.3,1.5-.5.8-1.4,1,.2-.9.8-.8,1.4-1Z"/>
  <path class="st12" d="M370.4,425.7c-.1,0-.2.8-1.4,1-.2-1.3.3-1,1.4-1Z"/>
  <path class="st1" d="M817.2,500.5c0,0-.3-1.1.7-1h136.7c.5.7,1.5,1.1,1.3,2.1l-.3,67-.7.5c0-.3,0-.6,0-1v-66.7l.4-.3-.4-.2-137.7-.5v68.1l137.7.5-137,.5c-1,.1-.6-.9-.7-1s-1.1.3-1-.7v-66.8c-.1-1,.9-.6,1-.7Z"/>
  <path class="st2" d="M740.3,517.9c15.4-2.9,26.5,14.7,16.9,27s-26.9,7.3-30.1-6.8c-2-8.7,4.4-18.5,13.2-20.2Z"/>
  <path class="st2" d="M954.9,568.2c1.1-21.2,0-44.3,0-65.7v65.7Z"/>
  <polygon class="st2" points="954.9 501.5 954.9 501 955.2 501.2 954.9 501.5"/>
</svg>