<?xml version="1.0" encoding="UTF-8"?>
<svg id="_x36_" xmlns="http://www.w3.org/2000/svg" version="1.1" xmlns:xlink="http://www.w3.org/1999/xlink" viewBox="0 0 512 512">
  <!-- Generator: Adobe Illustrator 29.2.1, SVG Export Plug-In . SVG Version: 2.1.0 Build 116)  -->
  <defs>
    <style>
      .st0 {
        fill: url(#Gradiente_sem_nome_31);
      }

      .st1 {
        fill: url(#Gradiente_sem_nome_21);
      }

      .st2 {
        fill: url(#Gradiente_sem_nome_5);
      }

      .st3 {
        fill: #040000;
      }

      .st3, .st4, .st5 {
        isolation: isolate;
        opacity: .1;
      }

      .st6 {
        fill: url(#Gradiente_sem_nome_9);
      }

      .st4, .st7 {
        fill: #fbe0e1;
      }

      .st8 {
        fill: url(#Gradiente_sem_nome_26);
      }

      .st9 {
        fill: url(#Gradiente_sem_nome_2);
      }

      .st10 {
        fill: url(#Gradiente_sem_nome_11);
      }

      .st11 {
        fill: url(#Gradiente_sem_nome_23);
      }

      .st12 {
        fill: url(#Gradiente_sem_nome_17);
      }

      .st13 {
        fill: url(#Gradiente_sem_nome_25);
      }

      .st14 {
        fill: url(#Gradiente_sem_nome);
      }

      .st15 {
        fill: url(#Gradiente_sem_nome_27);
      }

      .st16 {
        fill: #2b1617;
      }

      .st17 {
        fill: url(#Gradiente_sem_nome_19);
      }

      .st18 {
        fill: url(#Gradiente_sem_nome_13);
      }

      .st19 {
        fill: #3a2625;
      }

      .st20 {
        fill: url(#Gradiente_sem_nome_34);
      }

      .st21 {
        fill: url(#Gradiente_sem_nome_12);
      }

      .st22 {
        fill: url(#Gradiente_sem_nome_15);
      }

      .st23 {
        fill: url(#Gradiente_sem_nome_22);
      }

      .st24 {
        fill: url(#Gradiente_sem_nome_33);
      }

      .st25 {
        fill: url(#Gradiente_sem_nome_24);
      }

      .st26 {
        fill: url(#Gradiente_sem_nome_7);
      }

      .st27 {
        fill: #381f1f;
      }

      .st28 {
        fill: url(#Gradiente_sem_nome_4);
      }

      .st29 {
        fill: url(#Gradiente_sem_nome_16);
      }

      .st30 {
        fill: #fbdcd2;
      }

      .st31 {
        fill: url(#Gradiente_sem_nome_6);
      }

      .st5 {
        fill: #331d1c;
      }

      .st32 {
        fill: url(#Gradiente_sem_nome_30);
      }

      .st33 {
        fill: url(#Gradiente_sem_nome_10);
      }

      .st34 {
        fill: url(#Gradiente_sem_nome_29);
      }

      .st35 {
        fill: url(#Gradiente_sem_nome_20);
      }

      .st36 {
        fill: url(#Gradiente_sem_nome_3);
      }

      .st37 {
        fill: #362221;
      }

      .st38 {
        fill: url(#Gradiente_sem_nome_8);
      }

      .st39 {
        fill: url(#Gradiente_sem_nome_18);
      }

      .st40 {
        fill: url(#Gradiente_sem_nome_28);
      }

      .st41 {
        opacity: .5;
      }

      .st42 {
        fill: url(#Gradiente_sem_nome_14);
      }

      .st43 {
        fill: url(#Gradiente_sem_nome_32);
      }
    </style>
    <linearGradient id="Gradiente_sem_nome" data-name="Gradiente sem nome" x1="256.2" y1="1644" x2="256.2" y2="1132.1" gradientTransform="translate(0 -1132)" gradientUnits="userSpaceOnUse">
      <stop offset="0" stop-color="#e5b077"/>
      <stop offset="1" stop-color="#f8c783"/>
    </linearGradient>
    <linearGradient id="Gradiente_sem_nome_2" data-name="Gradiente sem nome 2" x1="160.4" y1="1644" x2="160.4" y2="1132.1" gradientTransform="translate(0 -1132)" gradientUnits="userSpaceOnUse">
      <stop offset="0" stop-color="#e5b077"/>
      <stop offset="1" stop-color="#f8c783"/>
    </linearGradient>
    <linearGradient id="Gradiente_sem_nome_3" data-name="Gradiente sem nome 3" x1="160.8" y1="1644" x2="160.8" y2="1132.1" gradientTransform="translate(0 -1132)" gradientUnits="userSpaceOnUse">
      <stop offset="0" stop-color="#e5b077"/>
      <stop offset="1" stop-color="#f8c783"/>
    </linearGradient>
    <linearGradient id="Gradiente_sem_nome_4" data-name="Gradiente sem nome 4" x1="161.2" y1="1644" x2="161.2" y2="1132.1" gradientTransform="translate(0 -1132)" gradientUnits="userSpaceOnUse">
      <stop offset="0" stop-color="#e5b077"/>
      <stop offset="1" stop-color="#f8c783"/>
    </linearGradient>
    <linearGradient id="Gradiente_sem_nome_5" data-name="Gradiente sem nome 5" x1="171.5" y1="1237.6" x2="171.5" y2="1237.6" gradientTransform="translate(0 -1132)" gradientUnits="userSpaceOnUse">
      <stop offset="0" stop-color="#e5b077"/>
      <stop offset="1" stop-color="#f8c783"/>
    </linearGradient>
    <linearGradient id="Gradiente_sem_nome_6" data-name="Gradiente sem nome 6" x1="184.7" y1="1644" x2="184.7" y2="1132.1" gradientTransform="translate(0 -1132)" gradientUnits="userSpaceOnUse">
      <stop offset="0" stop-color="#e5b077"/>
      <stop offset="1" stop-color="#f8c783"/>
    </linearGradient>
    <linearGradient id="Gradiente_sem_nome_7" data-name="Gradiente sem nome 7" x1="224.2" y1="1644" x2="224.2" y2="1132.1" gradientTransform="translate(0 -1132)" gradientUnits="userSpaceOnUse">
      <stop offset="0" stop-color="#e5b077"/>
      <stop offset="1" stop-color="#f8c783"/>
    </linearGradient>
    <linearGradient id="Gradiente_sem_nome_8" data-name="Gradiente sem nome 8" x1="256" y1="1380.7" x2="256" y2="1306.7" gradientTransform="translate(0 -1132)" gradientUnits="userSpaceOnUse">
      <stop offset="0" stop-color="#e5b077"/>
      <stop offset="1" stop-color="#d39a52"/>
    </linearGradient>
    <linearGradient id="Gradiente_sem_nome_9" data-name="Gradiente sem nome 9" x1="256" y1="1484.1" x2="256" y2="1352.2" gradientTransform="translate(0 -1132)" gradientUnits="userSpaceOnUse">
      <stop offset="0" stop-color="#e5b077"/>
      <stop offset="1" stop-color="#dea663"/>
    </linearGradient>
    <linearGradient id="Gradiente_sem_nome_10" data-name="Gradiente sem nome 10" x1="203.4" y1="1389.9" x2="308.6" y2="1389.9" gradientTransform="translate(0 -1132)" gradientUnits="userSpaceOnUse">
      <stop offset=".5" stop-color="#e5b077"/>
      <stop offset="1" stop-color="#d39a52"/>
    </linearGradient>
    <linearGradient id="Gradiente_sem_nome_11" data-name="Gradiente sem nome 11" x1="203.1" y1="1457.9" x2="308.9" y2="1457.9" gradientTransform="translate(0 -1132)" gradientUnits="userSpaceOnUse">
      <stop offset=".5" stop-color="#e5b077"/>
      <stop offset="1" stop-color="#d39a52"/>
    </linearGradient>
    <linearGradient id="Gradiente_sem_nome_12" data-name="Gradiente sem nome 12" x1="191.4" y1="1472.5" x2="320.6" y2="1472.5" gradientTransform="translate(0 -1132)" gradientUnits="userSpaceOnUse">
      <stop offset=".5" stop-color="#e5b077"/>
      <stop offset="1" stop-color="#d39a52"/>
    </linearGradient>
    <linearGradient id="Gradiente_sem_nome_13" data-name="Gradiente sem nome 13" x1="118.1" y1="1310.3" x2="118.1" y2="1134" gradientTransform="translate(0 -1132)" gradientUnits="userSpaceOnUse">
      <stop offset="0" stop-color="#947158"/>
      <stop offset="1" stop-color="#9e7b5c"/>
    </linearGradient>
    <linearGradient id="Gradiente_sem_nome_14" data-name="Gradiente sem nome 14" x1="128.5" y1="1274.9" x2="128.5" y2="1153.4" gradientTransform="translate(0 -1132)" gradientUnits="userSpaceOnUse">
      <stop offset="0" stop-color="#e5b077"/>
      <stop offset="1" stop-color="#d39a52"/>
    </linearGradient>
    <linearGradient id="Gradiente_sem_nome_15" data-name="Gradiente sem nome 15" x1="128.5" y1="1274.9" x2="128.5" y2="1153.4" gradientTransform="translate(0 -1132)" gradientUnits="userSpaceOnUse">
      <stop offset="0" stop-color="#e5b077"/>
      <stop offset="1" stop-color="#f8c783"/>
    </linearGradient>
    <linearGradient id="Gradiente_sem_nome_16" data-name="Gradiente sem nome 16" x1="107.6" y1="1225.8" x2="107.6" y2="1132" gradientTransform="translate(0 -1132)" gradientUnits="userSpaceOnUse">
      <stop offset="0" stop-color="#e5b077"/>
      <stop offset="1" stop-color="#d39a52"/>
    </linearGradient>
    <linearGradient id="Gradiente_sem_nome_17" data-name="Gradiente sem nome 17" x1="107.6" y1="1225.8" x2="107.6" y2="1132" gradientTransform="translate(0 -1132)" gradientUnits="userSpaceOnUse">
      <stop offset="0" stop-color="#e5b077"/>
      <stop offset="1" stop-color="#f8c783"/>
    </linearGradient>
    <linearGradient id="Gradiente_sem_nome_18" data-name="Gradiente sem nome 18" x1="128.3" y1="1308.3" x2="128.3" y2="1253.6" gradientTransform="translate(0 -1132)" gradientUnits="userSpaceOnUse">
      <stop offset="0" stop-color="#e5b077"/>
      <stop offset="1" stop-color="#d39a52"/>
    </linearGradient>
    <linearGradient id="Gradiente_sem_nome_19" data-name="Gradiente sem nome 19" x1="128.3" y1="1308.3" x2="128.3" y2="1253.6" gradientTransform="translate(0 -1132)" gradientUnits="userSpaceOnUse">
      <stop offset="0" stop-color="#e5b077"/>
      <stop offset="1" stop-color="#f8c783"/>
    </linearGradient>
    <linearGradient id="Gradiente_sem_nome_20" data-name="Gradiente sem nome 20" x1="394.8" y1="1310.3" x2="394.8" y2="1134" gradientTransform="translate(0 -1132)" gradientUnits="userSpaceOnUse">
      <stop offset="0" stop-color="#947158"/>
      <stop offset="1" stop-color="#9e7b5c"/>
    </linearGradient>
    <linearGradient id="Gradiente_sem_nome_21" data-name="Gradiente sem nome 21" x1="356.9" y1="1204.3" x2="356.9" y2="1152.5" gradientTransform="translate(0 -1132)" gradientUnits="userSpaceOnUse">
      <stop offset="0" stop-color="#947158"/>
      <stop offset="1" stop-color="#9e7b5c"/>
    </linearGradient>
    <linearGradient id="Gradiente_sem_nome_22" data-name="Gradiente sem nome 22" x1="367.8" y1="1255.8" x2="367.8" y2="1204.3" gradientTransform="translate(0 -1132)" gradientUnits="userSpaceOnUse">
      <stop offset="0" stop-color="#947158"/>
      <stop offset="1" stop-color="#9e7b5c"/>
    </linearGradient>
    <linearGradient id="Gradiente_sem_nome_23" data-name="Gradiente sem nome 23" x1="381.9" y1="1256.4" x2="381.9" y2="1248.5" gradientTransform="translate(0 -1132)" gradientUnits="userSpaceOnUse">
      <stop offset="0" stop-color="#947158"/>
      <stop offset="1" stop-color="#9e7b5c"/>
    </linearGradient>
    <linearGradient id="Gradiente_sem_nome_24" data-name="Gradiente sem nome 24" x1="-2874.4" y1="1274.8" x2="-2874.4" y2="1153.3" gradientTransform="translate(-2479.8 -1132) rotate(-180) scale(1 -1)" gradientUnits="userSpaceOnUse">
      <stop offset="0" stop-color="#e5b077"/>
      <stop offset="1" stop-color="#d39a52"/>
    </linearGradient>
    <linearGradient id="Gradiente_sem_nome_25" data-name="Gradiente sem nome 25" x1="394.6" y1="1274.8" x2="394.6" y2="1153.3" gradientTransform="translate(0 -1132)" gradientUnits="userSpaceOnUse">
      <stop offset="0" stop-color="#e5b077"/>
      <stop offset="1" stop-color="#f8c783"/>
    </linearGradient>
    <linearGradient id="Gradiente_sem_nome_26" data-name="Gradiente sem nome 26" x1="-2884.2" y1="1225.9" x2="-2884.2" y2="1131.9" gradientTransform="translate(-2479.8 -1132) rotate(-180) scale(1 -1)" gradientUnits="userSpaceOnUse">
      <stop offset="0" stop-color="#e5b077"/>
      <stop offset="1" stop-color="#d39a52"/>
    </linearGradient>
    <linearGradient id="Gradiente_sem_nome_27" data-name="Gradiente sem nome 27" x1="404.4" y1="1225.9" x2="404.4" y2="1131.9" gradientTransform="translate(0 -1132)" gradientUnits="userSpaceOnUse">
      <stop offset="0" stop-color="#e5b077"/>
      <stop offset="1" stop-color="#f8c783"/>
    </linearGradient>
    <linearGradient id="Gradiente_sem_nome_28" data-name="Gradiente sem nome 28" x1="-2863.7" y1="1308.3" x2="-2863.7" y2="1253.6" gradientTransform="translate(-2479.8 -1132) rotate(-180) scale(1 -1)" gradientUnits="userSpaceOnUse">
      <stop offset="0" stop-color="#e5b077"/>
      <stop offset="1" stop-color="#d39a52"/>
    </linearGradient>
    <linearGradient id="Gradiente_sem_nome_29" data-name="Gradiente sem nome 29" x1="383.9" y1="1308.3" x2="383.9" y2="1253.6" gradientTransform="translate(0 -1132)" gradientUnits="userSpaceOnUse">
      <stop offset="0" stop-color="#e5b077"/>
      <stop offset="1" stop-color="#f8c783"/>
    </linearGradient>
    <linearGradient id="Gradiente_sem_nome_30" data-name="Gradiente sem nome 30" x1="328.5" y1="1322.3" x2="328.5" y2="1138.6" gradientTransform="translate(0 -1132)" gradientUnits="userSpaceOnUse">
      <stop offset="0" stop-color="#e5b077"/>
      <stop offset="1" stop-color="#d39a52"/>
    </linearGradient>
    <linearGradient id="Gradiente_sem_nome_31" data-name="Gradiente sem nome 31" x1="183.3" y1="1322.3" x2="183.3" y2="1138.7" gradientTransform="translate(0 -1132)" gradientUnits="userSpaceOnUse">
      <stop offset="0" stop-color="#e5b077"/>
      <stop offset="1" stop-color="#f8c783"/>
    </linearGradient>
    <linearGradient id="Gradiente_sem_nome_32" data-name="Gradiente sem nome 32" x1="255.7" y1="1322.3" x2="255.7" y2="1139.3" gradientTransform="translate(0 -1132)" gradientUnits="userSpaceOnUse">
      <stop offset="0" stop-color="#e5b077"/>
      <stop offset="1" stop-color="#dea663"/>
    </linearGradient>
    <linearGradient id="Gradiente_sem_nome_33" data-name="Gradiente sem nome 33" x1="199.8" y1="1322.3" x2="199.8" y2="1138.6" gradientTransform="translate(0 -1132)" gradientUnits="userSpaceOnUse">
      <stop offset="0" stop-color="#e5b077"/>
      <stop offset="1" stop-color="#dea663"/>
    </linearGradient>
    <linearGradient id="Gradiente_sem_nome_34" data-name="Gradiente sem nome 34" x1="312.7" y1="1322.3" x2="312.7" y2="1138.6" gradientTransform="translate(0 -1132)" gradientUnits="userSpaceOnUse">
      <stop offset="0" stop-color="#e5b077"/>
      <stop offset="1" stop-color="#dea663"/>
    </linearGradient>
  </defs>
  <path class="st14" d="M449.4,20.3c-.6-1-1.3-2.1-1.9-3-1.6-2.3-3.3-4.4-5.3-6.4s-1.9-1.9-3-2.7c-1.9-1.6-3.9-2.9-5.9-3.9-3.7-2.1-7.7-3.5-11.9-4.1-3.2-.5-6.2.6-8.5,2.7-3.3,1.6-5.9,4.9-6.4,9.1-.9,6.4,3.2,12.4,9,13.4,3.6.6,7,2.4,9.6,5,.9.9,1.7,1.9,2.4,3,2.9,4.3,4.1,9.6,3.4,14.9-.5,3.9-1.8,7.6-3.6,10.8-.9,1.6-1.9,3-3.1,4.4-1.2,1.4-2.4,2.6-3.9,3.6-4.6,2.7-10,3.9-15.6,3-2-.4-3.9-.8-5.8-1.5-1.8-.7-3.5-1.4-5-2.4.1-1.3.3-2.6.5-3.9.3-2.4.6-4.7.8-7h0c1.1-9.1,2-17.1,2.5-23.8,1.1-13.4,1-21.8-1.6-23.6-5.8-4-28,3-37.2,12.2h0c-.1.1-.2.3-.3.4h0c0,.1-.2.3-.3.4-.5.5-1,1-1.3,1.6-.2.4-.4.7-.7,1h0c0,.1,0,.2-.1.3-.1,0,0,0,0,.1-.5-.6-1-1.2-1.5-1.7l-1.4-1.5h0c-4.1-4.2-8.9-7.5-14.2-9.8-5.3-2.3-11-3.6-17.1-3.6-12.9,0-24.5,5.8-32.9,15.2-.3-.3-.5-.6-.7-.8h0c-8.4-8.9-19.6-14.4-32.1-14.4s-1.1,0-1.6,0c-12.1.4-23.1,6-31.1,14.8h0s-.1.2-.2.2c-8.4-9.4-20-15.2-32.9-15.2s-21,4.2-28.9,11.2h0l-4.1,2.5-2.2,1.3-2.2-1.9-6-5.1c-10.7-6.6-26.2-10.6-30.9-7.3-4.1,2.9-1.9,23.4,1.8,54.4.2,1.3.4,2.7.5,3.9h0c-1.6.9-3.3,1.7-5,2.3-1.9.7-3.8,1.2-5.8,1.5-5.6.9-11-.3-15.6-2.9h0c-5.4-4.2-9.3-10.9-10.4-18.7-.7-5.3.5-10.6,3.4-14.9,2.9-4.4,7.2-7.1,12-7.9,5.8-1,9.9-7,9-13.4-.5-4.2-3-7.6-6.4-9.1h0c-2.3-2.1-5.3-3.2-8.5-2.7-10.5,1.7-19.8,7.8-26.1,17.2-6.3,9.4-9,20.9-7.4,32.4,1.9,14,8.8,25.9,18.4,33.8h0c8.6,17,21.1,31.3,36.1,41.6.3.2.5.4.7.6.4.3.7.5,1,.7,4.3,3.1,8.8,5.8,13.5,8.1,3.6,1.8,7.3,3.3,11,4.6.7,1.4,1.3,3,1.6,4.7,1.1,4.9.4,9.9-1.9,14.1-3.2,5.9-9.8,8.2-15.4,5.7-3.5-2.9-4.4-8.4-2.1-12.7,1.5-2.7.7-6.2-1.7-8h0c-.5-.3-1-.5-1.6-.6-.3-.5-.7-.9-1.3-1.3-2.5-1.7-5.8-.8-7.3,1.9-2.1,4-3,8.4-2.7,12.8.4,6.7,3.7,13,9.3,16.7.4.2.7.4,1.1.6.5.5,1.1,1,1.7,1.3,3.8,2.4,7.8,3.6,11.9,3.6,7.8,0,15.5-4.4,19.8-12.3,3-5.3,4.2-11.4,3.9-17.5h0c20.2,22.3,45,32.7,65.2,37.6v53.9l-6.4,3.5-8.3,3.9h-.6l.2.9-.2.9h.6l8.3,23.3,6.4,3.6c0,15.3-1.9,27.3-5.2,37.1-5.8.1-10.4,4.9-10.4,10.6v2.3c-2.5.1-4.8,1-6.7,2.5h-15.5l-38.7,50.1v98c-4.3,1.9-7.9,3.9-10.5,6-6.3,0-11.4,5.6-11.4,12.6v16.9h271.2v-16.9c0-6.7-4.8-12.3-10.9-12.6h-.5c-2.6-2.1-6.2-4.1-10.5-6.1v-98h0l-38.7-50.1h-15.3s-.1,0-.2-.1h-.1c0-.1-.1-.1-.3-.2-.7-.4-1.4-.8-2.1-1.2h0c-.7-.3-1.3-.5-2.1-.7-.2,0-.4-.1-.7-.1s-.8-.1-1.2-.1v-2.2c0-.7,0-1.5-.2-2.1,0-.5-.2-1-.4-1.5v-.2c0-.2-.1-.4-.3-.7-.2-.5-.5-1-.8-1.4s-.6-.8-1-1.2c-.2-.3-.4-.5-.7-.7-.3-.3-.7-.6-1-.8-.6-.4-1.2-.7-1.8-1-1.3-.6-2.6-.9-4-.9-.2-.7-.4-1.4-.7-2.1-.6-1.9-1.1-3.8-1.6-5.9-.3-1.3-.6-2.6-.8-3.9-.2-1.2-.4-2.4-.6-3.7-.1-.7-.2-1.3-.3-2.1-.1-1.1-.3-2.3-.4-3.5-.2-2.4-.4-4.9-.6-7.5,0-1.3-.1-2.6-.1-3.9v-4.5l5.7-3.2.7-.4,8.4-23.3h.5l-.2-.9.2-.8h-.5l-5.4-2.6-3-1.3-6.4-3.5v-53.9c6.3-1.6,13-3.6,20-6.4,1.4-.5,2.7-1.1,4.1-1.8,1.2-.5,2.4-1,3.6-1.6.2,0,.4-.2.6-.3l4.2-2.1c.5-.3,1.1-.6,1.6-.9,2.1-1.2,4.3-2.4,6.4-3.8,0-.1.2-.2.3-.2,5.6-3.6,11.1-7.7,16.4-12.6,1.3-1.2,2.6-2.4,3.9-3.8,1.3-1.3,2.6-2.6,3.9-4-.4,6.1,1,12.1,3.9,17.4,4.3,7.9,12,12.3,19.8,12.3s8.1-1.2,11.9-3.6c.4-.4.9-.7,1.3-1h0c.3-.2.5-.3.8-.5.2-.1.4-.3.6-.4,1.6-1.1,3-2.5,4.2-3.9,5.7-6.9,7-17.2,2.4-25.6-.1-.2-.3-.4-.5-.6-.8-1.1-1.9-1.9-3.2-2.1-1.2-.2-2.5,0-3.6.7-.5.3-.9.8-1.3,1.2h0c-.5.2-1,.4-1.6.7-2.4,1.7-3.3,5.3-1.8,8,2.3,4.1,1.5,9.4-1.7,12.5h0c-.7.4-1.5.6-2.3.8-.3,0-.5,0-.8.1-.6,0-1.2.2-1.8.2h-1.7c-.7-.1-1.5-.3-2.2-.5-.2,0-.4-.2-.6-.3-.5-.2-1.1-.5-1.6-.8,0,0-.2-.1-.2-.2-.7-.4-1.4-1-2.1-1.7-.2-.2-.4-.4-.6-.6-.6-.7-1.1-1.4-1.6-2.2,0-.1-.2-.2-.2-.3-1.2-2.1-1.9-4.5-2.3-6.9-.3-2.4-.2-4.9.3-7.3,0-.1,0-.3.1-.4.3-1.4.8-2.7,1.4-3.9,0-.1,0-.2.2-.3,8.4-2.9,16.4-7.1,23.7-12.2,0,0,.2,0,.3-.2h0c1.9-1.2,3.6-2.4,5.4-3.8.1,0,.2-.2.3-.2.8-.6,1.6-1.3,2.4-1.9,1.1-.9,2.2-1.7,3.3-2.7.4-.3.8-.7,1.2-1.1,1.4-1.3,2.8-2.5,4.2-3.9,1.4-1.4,2.8-2.9,4.2-4.5,5.8-6.4,10.9-13.6,15.2-21.3.7-1.3,1.5-2.6,2.2-4,9.6-7.9,16.5-19.8,18.4-33.8,1.4-10.3-.5-20.7-5.5-29.4v-.2h.1ZM132,122.5c-4.9-2.2-9.6-4.9-14-8-7.4-5.5-14-12.1-19.7-19.6,2.7.6,5.4.8,8.2.8s4.5,0,6.8-.5c2.6-.4,5-1,7.5-1.8,1-.3,1.9-.7,2.8-1,3,10.9,6.9,20.6,11.4,29.2-1.1,0-2.1.2-3,.9ZM158.4,53.2h0v-.2h0c.1.9.2,1.8.4,2.7-.1-.9-.3-1.7-.4-2.7v.2ZM160,63.3c0-.3,0-.6-.1-.9,0,.3,0,.6.2.9v.2-.2h0ZM163.4,79.9c-.2-1-.4-2.1-.7-3.1-.2-.8-.3-1.6-.5-2.4.2.8.3,1.6.5,2.4.2,1.1.5,2.1.7,3.1.2.8.4,1.5.6,2.3-.2-.8-.4-1.5-.6-2.3ZM167.4,94.2c-.3-.7-.5-1.5-.7-2.2v-.6c-.2-.8-.5-1.6-.7-2.5,0,0,0-.3-.1-.4,0,0,0,.3.1.4.2.8.5,1.6.7,2.5v.3s0,.2.1.4c.4,1.4.9,2.7,1.3,4-.2-.6-.4-1.2-.6-1.8h-.1ZM170.5,102.9c-.3-.8-.6-1.6-.9-2.3.3.8.6,1.6.9,2.3,0,.3.2.5.3.8-.1-.3-.2-.5-.3-.8ZM174.7,113.1c-.7-1.6-1.4-3.3-2.1-4.9v-.2c-.1-.4-.3-.8-.4-1.1.2.4.3.8.5,1.2v.2c.7,1.7,1.4,3.3,2.1,5,0,0,.1.3.2.4,0,0-.1-.3-.2-.4v-.2h-.1ZM181.2,126.2h0c-.4-1-1-1.8-1.4-2.7-.5-1-1-1.9-1.5-2.8-.4-.8-.7-1.6-1.2-2.4-.2-.4-.4-.9-.6-1.3.2.4.4.9.6,1.3.4.8.8,1.6,1.2,2.4.5,1,1,1.9,1.5,2.8s.9,1.7,1.4,2.6v.2c.1.2.3.4.4.5-.1-.2-.2-.4-.3-.5h-.1,0ZM194.3,145.9c-.3-.4-.5-.8-.8-1.1.3.4.6.7.9,1.1.4.6.9,1.1,1.3,1.7-.4-.5-.9-1.1-1.4-1.7ZM199.1,151.6c-.5-.7-1.1-1.3-1.6-1.9-.3-.4-.6-.7-.8-1,.3.3.5.6.8,1,.6.7,1.1,1.3,1.7,2,.3.3.6.7.9,1-.3-.3-.6-.7-.9-1h0ZM205.5,158.6c-.3-.3-.5-.6-.8-.9l.9.9c.3.3.5.6.8.8-.3-.3-.6-.6-.9-.8ZM207.9,161l-.8-.8.8.8c.8.8,1.6,1.5,2.4,2.2-.8-.7-1.6-1.4-2.4-2.2ZM240.2,174.7c-1.8-6.9-3.4-14.4-4.9-22.3,1.5,7.9,3.2,15.4,5,22.3h-.1ZM391.4,116.4h-.1c-.2.2-.5.3-.7.4-3.2,2-6.5,3.8-9.9,5.3-.2,0-.3.2-.5.2-.3-.2-.5-.3-.8-.4-.2,0-.4-.2-.6-.3h-.3c-.4,0-.8-.2-1.2-.2h0c2.2-4.3,4.3-8.9,6.2-13.7,1.9-4.9,3.6-10,5.2-15.5.2,0,.5.2.7.3.7.2,1.3.4,2.1.7,2.4.7,4.9,1.3,7.4,1.8,2.4.4,4.7.5,6.9.5s5.6-.2,8.2-.8c-6.4,8.4-13.9,15.7-22.4,21.5l-.2.2h0Z"/>
  <path class="st9" d="M160.5,66.8c0-.4-.1-.8-.2-1.2,0,.4.1.8.2,1.2v.2-.2Z"/>
  <path class="st36" d="M160.7,67.5v-.2h0c0,.5.1.9.2,1.3,0-.4-.2-.7-.2-1.1Z"/>
  <path class="st28" d="M161.1,69.4h0c0,.3.1.6.2.9,0-.3-.1-.6-.2-.9Z"/>
  <path class="st2" d="M171.5,105.6h0Z"/>
  <path class="st31" d="M185.9,134c-.8-1.3-1.6-2.6-2.4-3.9.8,1.3,1.6,2.6,2.4,3.9h0Z"/>
  <path class="st26" d="M224.6,174.7c-.3-.2-.6-.5-.9-.7.3.2.7.5,1,.7h-.1Z"/>
  <g>
    <g>
      <path class="st19" d="M384.3,489.1v22.9H127.7v-22.9c0-2.3,1.5-4.4,4.1-6.6,2.6-2.1,6.2-4.1,10.5-6,17.8-7.9,46.1-13.2,50.1-13.2h127.2c4,0,32.3,5.3,50.1,13.1,4.3,1.9,7.9,3.9,10.5,6.1h0c2.5,2.1,4,4.3,4,6.6h.1Z"/>
      <g>
        <rect class="st27" x="142.3" y="378.5" width="227.4" height="110.5"/>
        <rect class="st16" x="253.4" y="378.5" width="116.3" height="110.5"/>
      </g>
      <polygon class="st37" points="369.7 378.5 142.3 378.5 181 328.4 331 328.4 369.7 378.5"/>
      <path class="st38" d="M293.3,174.7v74c-12.1-.4-24.6-.4-37.2-.4h-4.1c-11.5,0-22.5,0-33.3.4v-74h74.6Z"/>
      <path class="st6" d="M320.6,345.6v2.7c-20.3,2.4-42.1,3.8-64.5,3.8h-4.1c-21.2-.1-41.5-1.4-60.6-3.8v-2.7c4.3-3.9,8.3-8.1,11.7-12.7,1.2-1.4,2.1-2.9,3-4.4.7-.8,1.2-1.7,1.7-2.6,2.1-3.9,4.1-8.1,5.6-12.8,3.3-9.8,5.2-21.8,5.2-37.1v-54.4c10.8-.7,21.8-1.2,33.3-1.2h4c12.4,0,24.8.4,36.7,1.3h.6v59c0,1.3,0,2.7.1,3.9.1,2.6.4,5.1.6,7.5.1,1.2.3,2.4.4,3.5,0,.7.1,1.4.3,2.1.1,1.3.4,2.5.6,3.7.2,1.3.5,2.7.8,3.9.4,2.1,1,4,1.6,5.9.2.7.4,1.4.7,2.1,1.6,4.7,3.5,9,5.6,12.8.5.9,1,1.8,1.7,2.6.8,1.6,1.9,3,3,4.4,3.4,4.7,7.3,8.8,11.7,12.7l.3-.2h0Z"/>
      <path class="st5" d="M293.3,240.4v44.5c-11.1,2.3-22.5,3.6-34.1,3.8h-3.2c-12.7,0-25.2-1.3-37.3-3.9v-44.5c12.1,2.5,24.6,3.9,37.3,3.9s2.1,0,3.2,0c11.6-.2,23-1.5,34.1-3.8h0Z"/>
      <polygon class="st33" points="308.4 248.2 308.6 249.1 308 249.1 299.7 272.4 299 272.7 293.3 275.9 292.5 276.4 286.3 279.7 269.7 281.4 242.3 281.4 225.7 279.7 218.7 275.9 212.3 272.4 204 249.1 203.4 249.1 203.6 248.2 203.4 247.4 204 247.3 212.3 243.5 218.7 240 225.7 236.1 242.3 234.5 269.7 234.5 286.3 236.1 293.3 240 299.7 243.5 302.7 244.8 308.1 247.3 308.6 247.4 308.4 248.2"/>
      <path class="st10" d="M308.9,323.6v15.3h-105.8v-15.3c0-5.7,4.6-10.4,10.4-10.6h85c1.4,0,2.7.4,4,1,.6.3,1.2.6,1.8,1,.4.2.7.5,1,.8.3.2.5.4.7.7.4.4.7.7,1,1.2.3.4.6.9.8,1.4.1.2.2.4.3.7v.2c.2.4.4,1,.4,1.5.1.7.2,1.4.2,2.1h.2Z"/>
      <path class="st21" d="M320.6,338.3v16.9h-129.2v-16.9c0-4.1,2-7.7,5-9.9,1.9-1.5,4.1-2.4,6.7-2.5h107c.2,0,.4,0,.7.1.7.1,1.4.4,2.1.7h0c.7.4,1.5.7,2.1,1.2.1,0,.2,0,.3.2,0,0,.1,0,.2.2.4.3,1,.7,1.3,1.1.5.5,1,1,1.3,1.6.2.3.5.7.7,1s.4.6.5.9.3.7.4,1c.1.4.2.7.3,1.1.1.3.2.7.2,1,.1.7.2,1.5.2,2.2h.2,0Z"/>
      <path class="st16" d="M391.6,495.1v16.9H120.4v-16.9c0-7,5.1-12.6,11.4-12.6h248.9c6.1.3,10.9,5.9,10.9,12.6Z"/>
      <path class="st5" d="M272.4,189.6c-1,.1-1.9.2-2.9.3-.4,0-.9.1-1.3.1h-15.5c-2.1,0-4.4,0-7.6-.2h-2.1c-2-.1-4.2-.3-6.6-.5-5.3-.6-11.3-1.5-17.8-2.8v23.8c9.6,2.1,18,3,24.4,3.4,3.9.3,7,.3,9.3.3h6.4c1.8,0,5.3,0,9.4-.2,6.4-.4,15.2-1.3,25.1-3.5v-23.9c-8,1.7-15.1,2.6-21,3l.2.2h0Z"/>
      <g>
        <g>
          <g>
            <path class="st18" d="M175.6,138.3c0,3.6-2.6,6.4-5.8,6.4-5.8,0-11.5-.5-17-1.5.4,1.8.6,3.5.7,5.3.4,6.1-.9,12.1-3.9,17.5-4.4,7.9-12,12.3-19.8,12.3s-8.1-1.2-11.9-3.6c-.6-.4-1.2-.8-1.7-1.3-5.8-4.8-8.6-12.7-7.5-20.3.4-2.7,1.2-5.4,2.6-7.9,1.2-2.2,3.6-3.2,5.7-2.6.5,0,1,.3,1.6.6h0c2.4,1.8,3.2,5.3,1.7,8-2.4,4.3-1.4,9.8,2.1,12.7.3.4.6.7,1,.9,5.9,4,13.7,1.9,17.3-4.7,2.4-4.3,3-9.3,1.9-14.1-.4-2.1-1.3-4.1-2.3-5.8-.7-.2-1.5-.4-2.1-.8-3.8-1.3-7.5-2.8-11-4.6-4.7-2.3-9.2-5-13.5-8.1-.4,0-.7-.4-1-.7-14-10.1-25.7-23.9-33.9-40h0v-.4c-1.2-1-2.3-1.9-3.3-3-7.9-7.8-13.4-18.5-15-30.8-1-7.8-.2-15.6,2.4-22.7h0c.9-2.5,2-4.8,3.3-7,.6-1,1.2-1.9,1.8-2.7,6.3-9.4,15.6-15.5,26.1-17.2,2.1-.4,4,0,5.8.8,3.3,1.6,5.8,4.9,6.4,9.1.9,6.4-3.2,12.4-9,13.4-4.8.8-9.1,3.6-12,7.9-2.9,4.3-4.1,9.6-3.4,14.9,1.1,7.8,5,14.5,10.4,18.7h0c5.1,4,11.6,5.8,18.4,4.8,2-.4,3.9-.8,5.8-1.6.9-.3,1.8-.7,2.7-1,5.6-2.6,10.6-6.8,14.3-12.4,5.5-8.1,7.8-18.2,6.4-28.2-.7-4.7,1.3-9,4.5-11.5,0,0,.2-.1.3-.2h0l5.7,4.9,2.4,2.1,4.8-2.9h0l1.6-1c.9,1.5,1.6,3.2,1.8,5,.4,3,.6,6.1.6,9.2,0,6.4-.9,12.7-2.7,18.7h0c-.6,2.1-1.3,4-2,5.9-1.6,4.2-3.8,8.3-6.4,12.1-6.8,10-16,17.4-26.5,21.4-.9.4-1.9.7-2.8,1-2.4.7-4.9,1.3-7.5,1.8-2.3.4-4.6.5-6.8.5s-5.6-.2-8.2-.8c5.9,7.8,12.8,14.7,20.6,20.3,1.3.9,2.5,1.7,3.9,2.5,2.8,1.9,5.8,3.6,8.9,5.1,1,.6,2.1,1,3.2,1.6.2,0,.4-.3.7-.4.2,0,.4-.2.7-.4.7,0,1.4-.2,2.1,0,.5,0,1,.2,1.5.4h.1c.1,0,.4,0,.5.3,1.1.7,2.1,1.5,3,2.4.6.5,1.1,1,1.6,1.6,7.9,2.4,16.3,3.8,24.9,3.8s1,0,1.6.3c2.4.7,4.2,3.1,4.2,6h-.6,0Z"/>
            <g>
              <g>
                <path class="st42" d="M173,136.6c0-3.6,45.5-6.4-5.8-6.4h0c-51.3-.1-93.1-46-93.1-102.5s0-15.8,0-20.5c0,0,0,0-.1.1,0,.6,0,.8,0,.3-.8.8-1.7,1.6-2.6,2.3-.9,5.5-1.9,11.4-3,11.4-3.2,0-1.4-2.7-2-6.3-.2.5-.6.9-.9,1.3-.4.6-.9,1.3-1.3,2-.3.5-.7,1.1-1,1.6,0,.3-.3.6-.5.9v7c0,63.4,47,115.1,104.7,115.1s5.8-2.7,5.8-6.3Z"/>
                <path class="st22" d="M173,136.6c0-3.6,45.5-6.4-5.8-6.4h0c-51.3-.1-93.1-46-93.1-102.5s0-15.8,0-20.5c0,0,0,0-.1.1,0,.6,0,.8,0,.3-.8.8-1.7,1.6-2.6,2.3-.9,5.5-1.9,11.4-3,11.4-3.2,0-1.4-2.7-2-6.3-.2.5-.6.9-.9,1.3-.4.6-.9,1.3-1.3,2-.3.5-.7,1.1-1,1.6,0,.3-.3.6-.5.9v7c0,63.4,47,115.1,104.7,115.1s5.8-2.7,5.8-6.3Z"/>
              </g>
              <g>
                <path class="st29" d="M157.8,23h-.2c0-.7-.3-1.4-.5-2.1v-.3l-2.2,1.3-2.2-1.9-2.8,1.7-.3.2-5.7-4.8-2.5-2.1c-3.5,2.4-5.5,6.9-4.9,11.7,1.4,10-.9,20-6.4,28.2-3.2,4.7-7.3,8.5-11.9,11.1-1.6.9-3.3,1.7-5,2.3-1.9.7-3.8,1.2-5.8,1.5-5.5,1-11-.2-15.6-2.9-6.9-4-12.1-11.5-13.3-20.7-.7-5.3.5-10.6,3.4-14.9s7.2-7.1,12-7.9c5.8-1,9.9-7,9-13.4-.4-2.9-1.7-5.4-3.6-7.2-2.3-2.1-5.4-3.2-8.6-2.7-6.2,1-12,3.6-17,7.5-.9,1-1.9,1.8-2.9,2.5-.6.6-1.2,1.2-1.8,1.8-.3.5-.6.9-1.2,1.4,0,.1-.3.2-.4.4-.5.6-1,1.3-1.5,1.9s-.9,1.2-1.3,1.8c-6.3,9.3-8.9,20.9-7.4,32.4,1.9,14,8.8,25.9,18.4,33.8,1,.7,2,1.5,3,2.2,5.1,3.5,10.8,6,16.9,7.2,2.7.5,5.9.8,8.2.8s4.6-.2,6.9-.6c2.6-.4,5.1-1,7.5-1.8,1.7-.5,3.3-1.1,4.9-1.8,9.6-4.1,18.1-11.2,24.4-20.6,2.6-3.8,4.7-7.9,6.4-12.1,1.7-4.2,2.9-8.6,3.7-13.1v-.2c1.1-6.7,1.2-13.7.3-20.6Z"/>
                <path class="st12" d="M157.8,23h-.2c0-.7-.3-1.4-.5-2.1v-.3l-2.2,1.3-2.2-1.9-2.8,1.7-.3.2-5.7-4.8-2.5-2.1c-3.5,2.4-5.5,6.9-4.9,11.7,1.4,10-.9,20-6.4,28.2-3.2,4.7-7.3,8.5-11.9,11.1-1.6.9-3.3,1.7-5,2.3-1.9.7-3.8,1.2-5.8,1.5-5.5,1-11-.2-15.6-2.9-6.9-4-12.1-11.5-13.3-20.7-.7-5.3.5-10.6,3.4-14.9s7.2-7.1,12-7.9c5.8-1,9.9-7,9-13.4-.4-2.9-1.7-5.4-3.6-7.2-2.3-2.1-5.4-3.2-8.6-2.7-6.2,1-12,3.6-17,7.5-.9,1-1.9,1.8-2.9,2.5-.6.6-1.2,1.2-1.8,1.8-.3.5-.6.9-1.2,1.4,0,.1-.3.2-.4.4-.5.6-1,1.3-1.5,1.9s-.9,1.2-1.3,1.8c-6.3,9.3-8.9,20.9-7.4,32.4,1.9,14,8.8,25.9,18.4,33.8,1,.7,2,1.5,3,2.2,5.1,3.5,10.8,6,16.9,7.2,2.7.5,5.9.8,8.2.8s4.6-.2,6.9-.6c2.6-.4,5.1-1,7.5-1.8,1.7-.5,3.3-1.1,4.9-1.8,9.6-4.1,18.1-11.2,24.4-20.6,2.6-3.8,4.7-7.9,6.4-12.1,1.7-4.2,2.9-8.6,3.7-13.1v-.2c1.1-6.7,1.2-13.7.3-20.6Z"/>
              </g>
              <g>
                <path class="st39" d="M146.8,164.1c-4.4,7.9-12,12.2-19.8,12.2s-7.3-1-10.8-3c-.4-.1-.7-.4-1.1-.6-5.6-3.8-8.9-10.1-9.3-16.7-.3-4.4.6-8.8,2.7-12.8,1.5-2.7,4.7-3.6,7.3-1.9.5.4,1,.7,1.3,1.3.4.4.7.9.8,1.4.7,1.6.6,3.6-.3,5.3-2.6,4.7-1.2,10.8,3,13.6.6.4,1.2.7,1.9,1,5.6,2.5,12.2.2,15.4-5.7,2.4-4.2,3-9.3,1.9-14.1-.4-1.7-.9-3.3-1.6-4.7-.1-.4-.4-.7-.6-1h0c-1.4-2.4-3.2-4.4-5.5-5.9-.5-.4-1-.8-1.3-1.3-1.4-1.9-1.6-4.4-.4-6.6.4-.7.8-1.2,1.3-1.6,0-.2.2-.3.4-.3.9-.7,1.9-1,3-1s1.7.3,2.5.8c.4.2.7.5,1,.7.4.3.7.5,1.1.8h.1c.8.8,1.6,1.5,2.4,2.3h0c3.9,4,6.5,9,7.8,14.7v.2c.3,1.3.5,2.6.6,3.9.7,6.6-.7,13.2-3.8,19h0Z"/>
                <path class="st17" d="M146.8,164.1c-4.4,7.9-12,12.2-19.8,12.2s-7.3-1-10.8-3c-.4-.1-.7-.4-1.1-.6-5.6-3.8-8.9-10.1-9.3-16.7-.3-4.4.6-8.8,2.7-12.8,1.5-2.7,4.7-3.6,7.3-1.9.5.4,1,.7,1.3,1.3.4.4.7.9.8,1.4.7,1.6.6,3.6-.3,5.3-2.6,4.7-1.2,10.8,3,13.6.6.4,1.2.7,1.9,1,5.6,2.5,12.2.2,15.4-5.7,2.4-4.2,3-9.3,1.9-14.1-.4-1.7-.9-3.3-1.6-4.7-.1-.4-.4-.7-.6-1h0c-1.4-2.4-3.2-4.4-5.5-5.9-.5-.4-1-.8-1.3-1.3-1.4-1.9-1.6-4.4-.4-6.6.4-.7.8-1.2,1.3-1.6,0-.2.2-.3.4-.3.9-.7,1.9-1,3-1s1.7.3,2.5.8c.4.2.7.5,1,.7.4.3.7.5,1.1.8h.1c.8.8,1.6,1.5,2.4,2.3h0c3.9,4,6.5,9,7.8,14.7v.2c.3,1.3.5,2.6.6,3.9.7,6.6-.7,13.2-3.8,19h0Z"/>
              </g>
            </g>
          </g>
          <g>
            <path class="st35" d="M452.5,45.2c0,2.1-.1,4.3-.4,6.5-1.6,12.3-7.1,23-15,30.7-1.1,1.1-2.2,2.1-3.4,3.1,0,0-.1.3-.2.4-8.5,16.7-20.7,30.9-35.4,41.1h0c-7.4,5.2-15.5,9.4-24,12.4-.7.3-1.5.5-2.1.7-1,1.7-1.9,3.7-2.3,5.8-1.1,4.8-.4,9.8,1.9,14.1,3.6,6.5,11.3,8.7,17.3,4.7.4-.3.9-.7,1.3-1,3.2-3.1,4-8.4,1.7-12.5-1.5-2.7-.7-6.3,1.8-8,.5-.3,1-.5,1.6-.7,2.1-.5,4.5.4,5.7,2.7,5.3,9.6,2.9,21.8-5,28.4,0,0-.1,0-.2.1h0c-.4.4-.8.7-1.3,1-3.8,2.4-7.9,3.6-11.9,3.6-7.9,0-15.6-4.4-19.8-12.3-3-5.3-4.3-11.3-3.9-17.4,0-1.8.3-3.6.7-5.3-5.6,1-11.3,1.5-17,1.5s-5.8-2.8-5.8-6.3,1.8-5.5,4.3-6.1c.4-.1,1-.2,1.5-.2,8.6,0,17-1.3,24.9-3.8.5-.5,1-1,1.6-1.5,1-.9,2-1.7,3.1-2.4.3-.2.6-.4.8-.4.7-.5,1.3-1,2-1.5s1.6-.7,2.5-.8c1.1,0,2.1.3,3.1.9,3.9-1.7,7.6-3.7,11.1-6h.1c8.4-5.8,16-13,22.4-21.5-2.7.6-5.4.8-8.2.8s-4.5,0-6.9-.5c-2.5-.4-5-1-7.4-1.8-.7-.3-1.4-.5-2.1-.7-.2,0-.5,0-.7-.3h0c-9.7-3.6-18.1-10.2-24.7-19l-1.6-8.5h0l-6.4-36.3-1.2-6.5c.5.5,1,1.1,1.5,1.7h0c0-.1,0-.2.1-.3h0c.2-.4.4-.7.7-1l2.7,1.7,2.4-2.1,5.7-4.9c.1,0,.2.1.4.2,3.3,2.4,5.1,6.8,4.5,11.5-1.3,10,1,20.1,6.4,28.2,3.8,5.5,8.7,9.7,14.3,12.3.8.4,1.7.8,2.7,1.1,1.9.7,3.8,1.2,5.8,1.6,6.7,1,13.2-.8,18.4-4.9,1.4-1,2.7-2.3,3.9-3.6,1.2-1.3,2.2-2.8,3.1-4.4,1.9-3.2,3.1-6.9,3.6-10.8.7-5.3-.5-10.6-3.4-14.9-.7-1-1.6-2.1-2.4-3-2.6-2.6-5.9-4.4-9.6-5-5.9-1-9.9-7-9-13.4.5-4.2,3.1-7.6,6.4-9.1,1.3-.6,2.7-1,4.1-1h1.6c10.5,1.7,19.8,7.8,26.1,17.2.6.8,1.2,1.7,1.7,2.7,1.3,2.3,2.4,4.7,3.3,7.2,1.9,5.1,2.8,10.5,2.8,16.1l-.3-.4h0Z"/>
            <path class="st1" d="M361.1,63l1.8,9.4c-.3-.4-.6-.9-.9-1.3-2.6-3.8-4.7-7.8-6.4-12.1h0c-1-2.5-1.8-5-2.5-7.6-2.2-8.4-2.8-17.2-1.6-26.1.2-1.7.8-3.3,1.6-4.7l.9,5,7,37.5h.1Z"/>
            <path class="st23" d="M363.7,73.4l8.9,50.5-9.7-51.5c.2.4.5.7.8,1.1h0Z"/>
            <path class="st11" d="M391.3,116.5c-3.4,2.4-7,4.5-10.7,6.3h0c-1.1.5-2.2,1.1-3.3,1.6-.2-.2-.4-.3-.7-.4-.2,0-.5-.2-.7-.3-1.1-.3-2.3-.3-3.4.2.6-.5,1.3-1,2-1.5,1.8-1.2,4-1.1,5.6,0,3.8-1.7,7.6-3.7,11.1-6h.1Z"/>
            <g>
              <g>
                <path class="st25" d="M449.7,27.7v1.4h0c-.2,19.3-4.8,37.4-12.6,53.3q-2.3,4.7,0,0c-.2.4-.4.8-.6,1.2h0c-9.1,17.9-22.4,32.9-38.4,43.3h0c-7.3,4.7-15.1,8.5-23.4,11.2-4.1,1.3-8.3,2.4-12.6,3.2-5.5,1-11.2,1.5-17,1.5s-5.8-2.8-5.8-6.4.6-3.1,1.5-4.2c1.1-1.3,2.6-2.1,4.3-2.1,8.2,0,16.1-1.2,23.6-3.3.4,0,.8-.2,1.2-.4,2.3-.7,4.6-1.5,6.9-2.4,1.2-.5,2.4-1,3.5-1.5,3.8-1.7,7.6-3.7,11.1-6h.1c9.6-6.1,18.1-14,25.2-23.4,13.4-17.8,21.5-40.6,21.5-65.4s2.6-6.4,5.8-6.4,1.7.2,2.4.6c2,1,3.4,3.2,3.4,5.8h-.1Z"/>
                <path class="st13" d="M449.7,27.7v1.4h0c-.2,19.3-4.8,37.4-12.6,53.3q-2.3,4.7,0,0c-.2.4-.4.8-.6,1.2h0c-9.1,17.9-22.4,32.9-38.4,43.3h0c-7.3,4.7-15.1,8.5-23.4,11.2-4.1,1.3-8.3,2.4-12.6,3.2-5.5,1-11.2,1.5-17,1.5s-5.8-2.8-5.8-6.4.6-3.1,1.5-4.2c1.1-1.3,2.6-2.1,4.3-2.1,8.2,0,16.1-1.2,23.6-3.3.4,0,.8-.2,1.2-.4,2.3-.7,4.6-1.5,6.9-2.4,1.2-.5,2.4-1,3.5-1.5,3.8-1.7,7.6-3.7,11.1-6h.1c9.6-6.1,18.1-14,25.2-23.4,13.4-17.8,21.5-40.6,21.5-65.4s2.6-6.4,5.8-6.4,1.7.2,2.4.6c2,1,3.4,3.2,3.4,5.8h-.1Z"/>
              </g>
              <g>
                <path class="st8" d="M454.8,49.7c-1.9,14-8.7,25.9-18.4,33.8-1,.8-2,1.6-3,2.2-5,3.6-10.8,6.1-16.8,7.3-2.7.5-5.4.8-8.2.8s-4.5-.2-6.8-.6c-2.6-.4-5.1-1-7.5-1.8-1.7-.5-3.3-1.2-4.9-1.9-9.7-4.1-18.1-11.2-24.4-20.6-1-1.3-1.9-2.8-2.7-4.2h0c-.4-.7-.7-1.3-1-1.9h0c-1-2.1-1.9-4-2.7-6-2-5-3.4-10.4-4.1-15.8-.7-5-.7-10.2-.1-15.4,0-.8,0-1.7.2-2.5,0-.4.1-.8.2-1.3.5.5,1,1.1,1.5,1.7h0c0-.1,0-.2.1-.3h0c.2-.4.4-.7.7-1,.4-.5.8-1,1.3-1.6.1-.2.4-.5.7-.8h0l3.1,1.9.4.2,5.7-4.9,2.4-2.1h0c3.4,2.4,5.5,7,4.8,11.7-1.3,10.1,1,20.1,6.4,28.2,3.2,4.7,7.3,8.5,11.9,11.1,1.6,1,3.3,1.7,5,2.4,1.9.7,3.8,1.1,5.8,1.5,5.6.9,11-.3,15.6-3,7-4,12.1-11.5,13.4-20.7.7-5.3-.5-10.6-3.4-14.9s-7.2-7.1-12-7.9c-5.9-1-9.9-6.9-9-13.3.4-3,1.7-5.5,3.6-7.3C414.9.6,417.9-.6,421.1,0c4.2.7,8.2,2.1,11.9,4.1,2.1,1,4.1,2.4,5.9,3.9,1,.9,2,1.8,3,2.7,2,1.9,3.7,4.1,5.3,6.4.7,1,1.3,2,1.9,3,5,8.7,6.9,19.1,5.5,29.4,0,0,.2.2.2.2Z"/>
                <path class="st15" d="M454.8,49.7c-1.9,14-8.7,25.9-18.4,33.8-1,.8-2,1.6-3,2.2-5,3.6-10.8,6.1-16.8,7.3-2.7.5-5.4.8-8.2.8s-4.5-.2-6.8-.6c-2.6-.4-5.1-1-7.5-1.8-1.7-.5-3.3-1.2-4.9-1.9-9.7-4.1-18.1-11.2-24.4-20.6-1-1.3-1.9-2.8-2.7-4.2h0c-.4-.7-.7-1.3-1-1.9h0c-1-2.1-1.9-4-2.7-6-2-5-3.4-10.4-4.1-15.8-.7-5-.7-10.2-.1-15.4,0-.8,0-1.7.2-2.5,0-.4.1-.8.2-1.3.5.5,1,1.1,1.5,1.7h0c0-.1,0-.2.1-.3h0c.2-.4.4-.7.7-1,.4-.5.8-1,1.3-1.6.1-.2.4-.5.7-.8h0l3.1,1.9.4.2,5.7-4.9,2.4-2.1h0c3.4,2.4,5.5,7,4.8,11.7-1.3,10.1,1,20.1,6.4,28.2,3.2,4.7,7.3,8.5,11.9,11.1,1.6,1,3.3,1.7,5,2.4,1.9.7,3.8,1.1,5.8,1.5,5.6.9,11-.3,15.6-3,7-4,12.1-11.5,13.4-20.7.7-5.3-.5-10.6-3.4-14.9s-7.2-7.1-12-7.9c-5.9-1-9.9-6.9-9-13.3.4-3,1.7-5.5,3.6-7.3C414.9.6,417.9-.6,421.1,0c4.2.7,8.2,2.1,11.9,4.1,2.1,1,4.1,2.4,5.9,3.9,1,.9,2,1.8,3,2.7,2,1.9,3.7,4.1,5.3,6.4.7,1,1.3,2,1.9,3,5,8.7,6.9,19.1,5.5,29.4,0,0,.2.2.2.2Z"/>
              </g>
              <g>
                <path class="st40" d="M397,172.7c-.5.3-.9.6-1.4.9-3.3,1.9-6.9,2.8-10.5,2.8-7.8,0-15.5-4.4-19.8-12.3-3.8-6.9-4.9-15-3.2-22.8v-.2c1.3-5.7,4-10.7,7.7-14.7.9-.9,1.8-1.8,2.8-2.5q.3-.2,0,0c.6-.5,1.3-1,2-1.5,1.8-1.2,4-1.1,5.6,0,.1,0,.3.2.4.3h0c.5.4.9.9,1.2,1.5,1.5,2.7.7,6.3-1.8,8-2.2,1.5-4.1,3.4-5.5,5.8-.2.4-.4.8-.6,1.2h0c-.7,1.4-1.3,3-1.6,4.6-1.1,4.9-.4,9.9,2,14.2,3.3,6,10.1,8.2,15.8,5.5.5-.2,1-.5,1.5-.9,4.2-2.8,5.6-8.9,3.1-13.6-1.2-2.2-.9-4.9.5-6.8.3-.5.8-.9,1.3-1.2,2.5-1.7,5.7-.8,7.2,2,5.6,10.2,2.6,23.4-6.6,29.5h-.1v.2Z"/>
                <path class="st34" d="M397,172.7c-.5.3-.9.6-1.4.9-3.3,1.9-6.9,2.8-10.5,2.8-7.8,0-15.5-4.4-19.8-12.3-3.8-6.9-4.9-15-3.2-22.8v-.2c1.3-5.7,4-10.7,7.7-14.7.9-.9,1.8-1.8,2.8-2.5q.3-.2,0,0c.6-.5,1.3-1,2-1.5,1.8-1.2,4-1.1,5.6,0,.1,0,.3.2.4.3h0c.5.4.9.9,1.2,1.5,1.5,2.7.7,6.3-1.8,8-2.2,1.5-4.1,3.4-5.5,5.8-.2.4-.4.8-.6,1.2h0c-.7,1.4-1.3,3-1.6,4.6-1.1,4.9-.4,9.9,2,14.2,3.3,6,10.1,8.2,15.8,5.5.5-.2,1-.5,1.5-.9,4.2-2.8,5.6-8.9,3.1-13.6-1.2-2.2-.9-4.9.5-6.8.3-.5.8-.9,1.3-1.2,2.5-1.7,5.7-.8,7.2,2,5.6,10.2,2.6,23.4-6.6,29.5h-.1v.2Z"/>
              </g>
            </g>
          </g>
        </g>
        <g>
          <path class="st32" d="M397.7,31.4c-.6,6.7-1.5,14.7-2.5,23.8h0c-.3,2.4-.6,4.7-.9,7-.1,1.3-.3,2.7-.4,3.9-.1,1.1-.3,2.1-.4,3.1-1.1,7.3-2.6,14.1-4.2,20.4-.3,1-.5,1.9-.7,2.7-1.6,5.5-3.3,10.6-5.2,15.5-1.9,4.8-4,9.4-6.2,13.7-.4.7-.7,1.4-1.1,2.1-.1.2-.3.4-.4.7-3.3,6-6.8,11.3-10.6,16.2h0c-1.2,1.6-2.3,3-3.6,4.5h0c-1,1.2-1.9,2.3-2.9,3.4-1.3,1.4-2.5,2.7-3.9,4-1.3,1.3-2.6,2.6-3.9,3.8-5.3,4.9-10.8,9-16.4,12.6,0,0-.2,0-.3.2-2.1,1.3-4.3,2.6-6.4,3.8-.5.3-1.1.6-1.6.9-1.4.7-2.8,1.5-4.2,2.1-.2,0-.4.2-.6.3-1.2.6-2.4,1.1-3.6,1.6-1.4.7-2.7,1.3-4.1,1.8-7,2.8-13.7,4.9-20,6.4-10.5,2.6-19.8,3.6-26.4,4-.9,0-1.8,0-2.6.1h-5.8c3.2-1.4,6.4-2.9,9.7-4.5,6.1-3.2,12.4-6.8,18.4-11.1.9-.6,1.7-1.2,2.6-1.9.5-.4,1-.8,1.6-1.3.6-.4,1.2-.9,1.8-1.3.5-.4,1-.9,1.6-1.3.9-.7,1.8-1.4,2.7-2.2.2-.1.4-.3.6-.4.5-.5,1.1-1,1.6-1.5,1.7-1.5,3.4-3,5-4.7.6-.5,1.1-1.1,1.6-1.6,3.4-3.4,6.7-7,9.8-11,.4-.4.7-.9,1.1-1.3.6-.8,1.3-1.6,1.9-2.4.8-1,1.6-2.1,2.4-3.3,2.4-3.3,4.7-6.9,7-10.7.4-.7.9-1.5,1.3-2.2.9-1.6,1.7-3.1,2.5-4.7.4-.7.7-1.4,1.1-2.1.4-1,1-1.9,1.4-2.8.4-.8.7-1.6,1.2-2.4.4-.9.7-1.7,1.1-2.6.4-.8.8-1.7,1.2-2.6l1.1-2.7c.4-.9.7-1.8,1-2.7.4-.9.7-1.8,1-2.7.4-.9.7-1.9,1-2.8.4-.9.7-1.9,1-2.8.4-1,.7-1.9,1-2.9.2-.8.5-1.6.7-2.4.7-2.1,1.3-4.4,1.9-6.6.2-1,.5-1.9.7-2.7.3-1.2.6-2.4.8-3.6.3-1,.5-2.1.7-3.2.2-1,.4-2,.7-3,.3-1.2.5-2.4.7-3.6.4-2.2.8-4.4,1.2-6.7.2-1.1.4-2.1.5-3.3v-.4c0-.8.2-1.6.4-2.4.2-1.5.4-3,.6-4.6v-.8c.1-.7.2-1.6.3-2.4,0-.7.2-1.6.3-2.3.1-1.6.4-3.1.5-4.6.4-3.1.7-6.1,1-9,.1-.9.2-1.8.3-2.7,0-.4,0-.7.1-1,0-.7.1-1.5.2-2.1,0-1,.2-2.1.3-3h0c.2-.4.4-.7.7-1,.4-.5.8-1,1.3-1.6.1-.2.4-.5.7-.8h0c9.2-9.3,31.4-16.2,37.2-12.2,2.5,1.8,2.7,10.2,1.6,23.6l.2.3h0Z"/>
          <path class="st0" d="M252.8,190.3c-1.9,0-4.4,0-7.6-.2h-.7c-6.6-.4-15.6-1.4-25.8-3.9-20.1-4.9-45-15.3-65.2-37.5h0c-1-1.2-1.9-2.2-2.8-3.3h0c-1.3-1.6-2.4-3-3.6-4.5-3.6-4.8-7.1-10.1-10.3-15.8,0,0-.2-.4-.3-.5-.1-.2-.2-.4-.4-.7h0c-.4-.8-.7-1.4-1.1-2.1-4.5-8.6-8.4-18.3-11.4-29.2,0-.3,0-.6-.2-.9,0-.6-.4-1.3-.5-1.9-1.7-6.4-3.1-13.1-4.2-20.4h0v-.8c0-.8-.2-1.6-.4-2.4,0-1.3-.3-2.6-.5-3.9-3.7-31-5.8-51.5-1.8-54.4,4.7-3.3,20.2.7,30.9,7.3l6,5.1,2.2,1.9v.4c.7,6.4,1.5,13.6,2.4,21.4.3,2.1.5,4.4.8,6.6,0,.9.2,1.7.3,2.6h0c.2,1.4.4,2.6.6,3.9.1,1.2.3,2.3.5,3.4.1,1,.3,1.9.4,2.9,0,.4.1.7.2,1,.1.8.2,1.6.4,2.4,0,0,0,.2.1.4h0v.4c.1.6.2,1.1.4,1.7h0c.1.7.2,1.3.4,1.9.1.9.3,1.7.5,2.5.2,1,.4,2.1.7,3.2.3,1,.5,2.1.7,3.1.3,1,.5,2,.8,3,.2,1,.5,2,.8,3,.2,1,.5,1.9.8,2.9.2.9.5,1.7.7,2.5v.6c.2.7.4,1.5.7,2.2.4,1.1.7,2.2,1.1,3.3.3.9.6,1.7.9,2.6,0,0,0,.3.1.4.3.8.6,1.6.9,2.4.3.7.6,1.5.9,2.1v.5h0c.3.9.6,1.7.9,2.4v.2c.7,1.6,1.4,3.3,2.1,4.9.4.9.8,1.8,1.3,2.7.4.8.7,1.6,1.1,2.4.4.8.8,1.6,1.2,2.4.5,1,1,1.9,1.5,2.8.4.9,1,1.7,1.4,2.6h0c.3.5.5,1,.8,1.4.4.7.8,1.5,1.3,2.2.9,1.5,1.7,2.9,2.6,4.3h0c.9,1.4,1.8,2.8,2.7,4.1.3.5.7,1,1,1.5s.7,1,1,1.5c.7,1,1.4,1.9,2.1,2.9.4.7,1,1.3,1.4,1.9.5.6,1,1.2,1.4,1.7.6.7,1.1,1.3,1.7,2.1.5.6,1.1,1.3,1.6,1.9,1.2,1.3,2.3,2.6,3.5,3.8.4.5.9,1,1.4,1.5.5.6,1,1.1,1.6,1.7.4.3.7.7,1.1,1l1.3,1.3c1.4,1.3,2.7,2.6,4.1,3.8.6.5,1.1,1,1.7,1.5.5.5,1.1,1,1.7,1.4,3,2.5,6.1,4.8,9.1,7,1.7,1.2,3.5,2.4,5.2,3.5.5.4,1,.7,1.6,1,.5.3,1,.7,1.5,1,.2,0,.4.1.5.3.4.3.9.5,1.4.8,1.1.7,2.2,1.3,3.4,1.9.5.3,1.1.7,1.7,1,1.1.6,2.3,1.2,3.4,1.8,3.2,1.6,6.4,3.1,9.6,4.4l.7.2h0Z"/>
          <path class="st43" d="M288.1,21.5c-.4,11.6-1,25.1-1.8,40.1-2.3,47.8-7.9,84.7-15.1,113.1-1,3.9-2,7.6-3,11.1-3.3,1.6-6.5,3.1-9.7,4.5h-5.7c-3.2-1.3-6.4-2.8-9.6-4.4-1-3.6-2.1-7.3-3-11.2-7.3-28.4-12.8-65.2-15.2-113.1-.4-8.5-.7-16.5-1.1-23.9-.2-5.5-.4-10.7-.7-15.6,8-8.8,19-14.4,31.1-14.8h1.6c12.5,0,23.8,5.5,32.1,14.4v-.2h.1Z"/>
          <path class="st24" d="M243.3,185.9c-1.1-.6-2.3-1.2-3.4-1.8-.6-.3-1.1-.6-1.7-.9-1.1-.6-2.3-1.3-3.4-1.9-.5-.3-.9-.5-1.4-.8-.2-.1-.3-.2-.5-.3-.5-.3-1-.6-1.5-1-.5-.3-1-.6-1.5-1-4.8-3.1-9.6-6.6-14.3-10.5-.6-.5-1.1-.9-1.7-1.4-.6-.5-1.1-1-1.7-1.5-1.4-1.2-2.8-2.5-4.1-3.8-.5-.4-.9-.9-1.4-1.3l-1-1c-.5-.5-1.1-1.1-1.6-1.7-.5-.5-.9-1-1.4-1.5-1.2-1.2-2.3-2.5-3.4-3.8-.6-.6-1.1-1.3-1.7-2-.6-.7-1.1-1.3-1.7-2-.5-.6-.9-1.2-1.4-1.7-.5-.6-1-1.2-1.5-1.9-.7-1-1.4-1.9-2.1-2.9-.4-.5-.7-1-1.1-1.5-.4-.5-.7-1-1.1-1.5-.9-1.3-1.8-2.7-2.7-4.1h0c-.9-1.4-1.8-2.8-2.6-4.3-.4-.7-.9-1.5-1.3-2.2-.3-.4-.5-.9-.8-1.3v-.2c-.6-.8-1-1.7-1.5-2.6s-1-1.9-1.5-2.8c-.4-.8-.8-1.6-1.2-2.4s-.8-1.6-1.2-2.4c-.4-.9-.8-1.7-1.2-2.6-.7-1.6-1.4-3.3-2.1-5v-.2c-.3-.8-.6-1.6-1-2.4h0s0-.2-.1-.3v-.2c-.3-.7-.6-1.4-.8-2.2-.3-.8-.6-1.6-.9-2.4,0-.2-.1-.3-.2-.5-.3-.9-.6-1.7-.9-2.6-.6-1.8-1.2-3.6-1.8-5.5,0,0,0-.2-.1-.4v-.3c-.2-.8-.5-1.6-.7-2.5-.3-1-.6-2-.8-2.9-.3-1-.5-2-.8-3s-.5-2-.8-3.1c-.3-1-.5-2.1-.7-3.1s-.5-2.1-.7-3.2c-.2-.8-.4-1.7-.5-2.5-.1-.6-.2-1.1-.3-1.7v-.2c-.1-.6-.2-1.2-.3-1.7v-.2h0v-.5c-.2-.8-.3-1.6-.4-2.4h0c0-.4-.1-.7-.2-1-.2-1-.3-1.9-.5-2.9-.2-1.1-.4-2.3-.5-3.4h0c-.2-1.3-.4-2.6-.5-3.9-.1-.9-.2-1.7-.3-2.6-.3-2.2-.5-4.5-.8-6.6-.9-7.8-1.7-15-2.4-21.4v-.4l2.2-1.3,4.1-2.5h0c7.9-7,18-11.2,28.9-11.2s24.5,5.8,32.9,15.2c0,0,.1-.2.2-.2.5,11.5,1.1,24.8,1.8,39.5,2.6,54.4,9.4,94.6,18.2,124.3h-.6Z"/>
          <path class="st20" d="M356.3,23.4c0,1-.2,2-.3,3,0,.7-.1,1.4-.2,2.1,0,.3,0,.7-.1,1,0,.9-.1,1.8-.3,2.7-.3,2.9-.7,5.8-1,9-.1,1.5-.4,3-.5,4.6,0,.7-.2,1.6-.3,2.3,0,.8-.1,1.6-.3,2.4v.8c-.2,1.6-.4,3.1-.6,4.6-.1.8-.3,1.6-.4,2.4v.4c-.1,1.1-.3,2.1-.5,3.3-.4,2.3-.7,4.5-1.2,6.7-.2,1.2-.4,2.4-.7,3.6-.2,1-.4,2-.7,3-.2,1.1-.4,2.1-.7,3.2-.2,1.2-.5,2.4-.8,3.6-.2.9-.5,1.8-.7,2.7-.6,2.2-1.3,4.4-1.9,6.6-.2.8-.5,1.6-.7,2.4-.3,1-.6,1.9-1,2.9-.3,1-.6,1.9-1,2.8-.3,1-.7,1.9-1,2.8-.3,1-.7,1.9-1,2.7-.3.9-.7,1.8-1,2.7l-1.1,2.7c-.4.9-.7,1.8-1.2,2.6-.4.9-.7,1.7-1.1,2.6-.4.8-.8,1.6-1.2,2.4-.4,1-1,1.9-1.4,2.8-.4.7-.7,1.4-1.1,2.1-.8,1.6-1.6,3.1-2.5,4.7-.4.7-.9,1.5-1.3,2.2-2.2,3.8-4.5,7.3-7,10.7-.7,1.1-1.6,2.2-2.4,3.3-.6.8-1.3,1.6-1.9,2.4-.4.4-.7.9-1.1,1.3-3.1,4-6.4,7.6-9.8,11s-1,1.1-1.6,1.6c-1.6,1.6-3.3,3.2-5,4.7-.5.5-1.1,1-1.6,1.5-.2.1-.4.3-.6.4-.9.8-1.8,1.6-2.7,2.2-.6.4-1.1.9-1.6,1.3-.6.4-1.2.9-1.8,1.3-.6.4-1.1.8-1.6,1.3-.9.7-1.7,1.3-2.6,1.9-6.1,4.3-12.3,7.9-18.4,11.1,1-3.6,2.1-7.3,3-11.1,7.3-28.4,12.8-65.2,15.1-113.1.7-15,1.3-28.4,1.8-40.1.3.2.5.5.8.8,8.4-9.4,20-15.2,32.9-15.2s11.8,1.3,17.1,3.6c5.3,2.3,10.1,5.6,14.2,9.9l1.4,1.5c.5.5,1,1.1,1.5,1.7h0c0-.1,0-.2.1-.3h-.4,0Z"/>
        </g>
      </g>
      <path class="st3" d="M449.4,20.3c-.6-1-1.3-2.1-1.9-3-1.6-2.3-3.3-4.4-5.3-6.4s-1.9-1.9-3-2.7c-1.9-1.6-3.9-2.9-5.9-3.9-3.7-2.1-7.7-3.5-11.9-4.1-3.2-.5-6.2.6-8.5,2.7-3.3,1.6-5.9,4.9-6.4,9.1-.9,6.4,3.2,12.4,9,13.4,3.6.6,7,2.4,9.6,5,.9.9,1.7,1.9,2.4,3,2.9,4.3,4.1,9.6,3.4,14.9-.5,3.9-1.8,7.6-3.6,10.8-.9,1.6-1.9,3-3.1,4.4-1.2,1.4-2.4,2.6-3.9,3.6-4.6,2.7-10,3.9-15.6,3-2-.3-3.9-.8-5.8-1.5-1.8-.7-3.5-1.4-5-2.4.1-1.3.3-2.6.5-3.9.3-2.4.6-4.7.8-7h0c1.1-9.1,2-17.1,2.5-23.8,1.1-13.4,1-21.8-1.6-23.6-5.8-4-28,3-37.2,12.2-.1.1-.3.3-.4.4,0,.1-.2.3-.3.4-.5.5-1,1-1.3,1.6-.2.4-.4.7-.7,1h0c0,.1,0,.2-.1.3-.1,0,0,0,0,.1-.5-.6-1-1.2-1.5-1.7l-1.4-1.5c-4.1-4.2-9-7.6-14.2-9.9-5.3-2.3-11-3.6-17.1-3.6-12.9,0-24.5,5.8-32.9,15.2-.3-.3-.5-.6-.7-.8h0c-8.4-8.9-19.6-14.4-32.1-14.4v348.1h64.6v-16.9c0-.7,0-1.5-.2-2.2,0-.3,0-.7-.2-1,0-.4-.1-.7-.3-1.1-.1-.3-.3-.7-.4-1s-.3-.6-.5-.9c-.1-.4-.4-.7-.7-1-.3-.6-.8-1.1-1.3-1.6s-.4-.4-.7-.6c-.1-.2-.3-.4-.5-.5,0,0-.1,0-.2-.1h-.1c0-.1-.1-.1-.3-.2-.7-.4-1.4-.8-2.1-1.2h0c-.7-.3-1.3-.5-2.1-.7-.2,0-.4-.1-.7-.1s-.8-.1-1.2-.1v-2.2c0-.7,0-1.5-.2-2.1,0-.5-.2-1-.4-1.5v-.2c0-.2-.1-.4-.3-.7-.2-.5-.5-1-.8-1.4s-.6-.8-1-1.2c-.2-.3-.4-.5-.7-.7-.3-.3-.7-.6-1-.8-.6-.4-1.2-.7-1.8-1-1.3-.5-2.6-.8-4-.9h0c-.2-.7-.4-1.4-.6-2.1-.6-1.9-1.1-3.8-1.6-5.9-.3-1.3-.6-2.6-.8-3.9-.2-1.3-.4-2.4-.6-3.7-.1-.7-.2-1.3-.3-2.1-.2-1.1-.4-2.3-.4-3.5-.3-2.4-.4-4.9-.6-7.5,0-1.3-.1-2.6-.1-3.9v-4.5l5.7-3.2.7-.4,8.4-23.3h.5l-.2-.9.2-.8h-.5l-5.4-2.6-3-1.3-6.4-3.5v-53.9c6.3-1.6,13-3.6,20-6.4,1.4-.5,2.7-1.1,4.1-1.8,1.2-.5,2.4-1,3.6-1.6.2,0,.4-.2.6-.3l4.2-2.1c.5-.3,1.1-.6,1.6-.9,2.1-1.2,4.3-2.4,6.4-3.8,0-.1.2-.2.3-.2,5.6-3.6,11.1-7.7,16.4-12.6,1.3-1.2,2.6-2.4,3.9-3.8,1.3-1.3,2.6-2.6,3.9-4-.4,6.1,1,12.1,3.9,17.4,4.3,7.9,12,12.3,19.8,12.3s8.1-1.2,11.9-3.6c.4-.4.9-.7,1.3-1h0c0-.1.1-.1.2-.2.4-.2.8-.5,1.3-.7,9.2-6.1,12.1-19.4,6.6-29.5-1.5-2.7-4.7-3.6-7.3-1.9-.5.3-.9.7-1.3,1.2-.5.1-1,.4-1.6.7-2.4,1.7-3.3,5.3-1.8,8,2.3,4.1,1.5,9.4-1.7,12.5-1.6.8-3.3,1.1-4.9,1.1h-1.7c-1.6-.2-3.1-.7-4.5-1.6-.9-.5-1.8-1.3-2.6-2.1-.7-.8-1.5-1.8-2.1-2.8-2.4-4.3-3-9.3-1.9-14.2.3-1.6.9-3.2,1.6-4.6,8.5-3,16.6-7.2,24-12.4h0c1.9-1.2,3.6-2.4,5.4-3.8,4-3,7.8-6.2,11.4-9.8,3.4-3.4,6.7-7,9.7-11,3-3.9,5.8-7.9,8.3-12.2,1.3-2.1,2.5-4.4,3.6-6.6,9.6-7.9,16.5-19.8,18.4-33.8,1.4-10.3-.5-20.7-5.5-29.4l-.2-.6h0ZM380.2,122.5c-1-.6-2-1-3.1-.9,2.2-4.3,4.3-8.9,6.2-13.7,1.9-4.9,3.6-10,5.1-15.5h0c.2,0,.5.2.7.3.7.2,1.4.4,2.1.7,2.4.8,4.9,1.4,7.4,1.9,2.4.4,4.7.5,6.9.5s5.6-.2,8.2-.8c-6.4,8.4-13.9,15.7-22.4,21.5h-.1c-3.6,2.3-7.3,4.3-11.1,6h0Z"/>
    </g>
    <rect class="st4" x="199.1" y="413" width="109.8" height="11.6"/>
    <rect class="st4" x="199.1" y="438.3" width="109.8" height="11.6"/>
    <g class="st41">
      <path class="st7" d="M179.2,399.5c-4.3,0-7.9,3.5-7.9,7.9v48.1c0,4.3,3.5,7.9,7.9,7.9h79.4v-63.9h-79.4Z"/>
      <path class="st30" d="M335.6,455.5v-48.1c0-4.3-3.5-7.9-7.9-7.9h-74.3v63.9h74.3c4.3,0,7.9-3.5,7.9-7.9Z"/>
    </g>
    <rect class="st27" x="199.1" y="410" width="109.8" height="11.6"/>
    <rect class="st27" x="199.1" y="435.3" width="109.8" height="11.6"/>
  </g>
</svg>